M48
; DRILL file {KiCad 9.0.2-9.0.2-0~ubuntu22.04.1} date 2025-06-18T20:35:31+0200
; FORMAT={-:-/ absolute / metric / decimal}
; #@! TF.CreationDate,2025-06-18T20:35:31+02:00
; #@! TF.GenerationSoftware,Kicad,Pcbnew,9.0.2-9.0.2-0~ubuntu22.04.1
; #@! TF.FileFunction,Plated,1,2,PTH
FMAT,2
METRIC
; #@! TA.AperFunction,Plated,PTH,ComponentDrill
T1C1.000
%
G90
G05
T1
X101.0Y-57.3
X101.0Y-59.84
X101.0Y-62.38
X101.0Y-64.92
X101.0Y-67.46
X101.0Y-70.0
X101.0Y-72.54
X101.0Y-75.08
X101.0Y-77.62
X101.0Y-80.16
X101.0Y-82.7
X101.0Y-85.24
X101.0Y-87.78
X101.0Y-90.32
X101.0Y-92.86
X116.24Y-57.3
X116.24Y-59.84
X116.24Y-62.38
X116.24Y-64.92
X116.24Y-67.46
X116.24Y-70.0
X116.24Y-72.54
X116.24Y-75.08
X116.24Y-77.62
X116.24Y-80.16
X116.24Y-82.7
X116.24Y-85.24
X116.24Y-87.78
X116.24Y-90.32
X116.24Y-92.86
X130.0Y-93.0
X132.5Y-93.0
X135.0Y-93.0
X137.5Y-93.0
X140.0Y-93.0
X142.5Y-93.0
X145.0Y-93.0
M30
