%TF.GenerationSoftware,KiCad,Pcbnew,9.0.2-9.0.2-0~ubuntu22.04.1*%
%TF.CreationDate,2025-06-18T20:33:50+02:00*%
%TF.ProjectId,salaemcp,73616c61-656d-4637-902e-6b696361645f,rev?*%
%TF.SameCoordinates,Original*%
%TF.FileFunction,Legend,Top*%
%TF.FilePolarity,Positive*%
%FSLAX46Y46*%
G04 Gerber Fmt 4.6, Leading zero omitted, Abs format (unit mm)*
G04 Created by KiCad (PCBNEW 9.0.2-9.0.2-0~ubuntu22.04.1) date 2025-06-18 20:33:50*
%MOMM*%
%LPD*%
G01*
G04 APERTURE LIST*
%ADD10C,0.100000*%
%ADD11C,0.125000*%
%ADD12C,0.150000*%
%ADD13C,0.120000*%
G04 APERTURE END LIST*
D10*
X122000000Y-53500000D02*
X153000000Y-53500000D01*
X153000000Y-96000000D01*
X122000000Y-96000000D01*
X122000000Y-53500000D01*
X144661027Y-89872419D02*
X144994360Y-90872419D01*
X144994360Y-90872419D02*
X145327693Y-89872419D01*
X146232455Y-90777180D02*
X146184836Y-90824800D01*
X146184836Y-90824800D02*
X146041979Y-90872419D01*
X146041979Y-90872419D02*
X145946741Y-90872419D01*
X145946741Y-90872419D02*
X145803884Y-90824800D01*
X145803884Y-90824800D02*
X145708646Y-90729561D01*
X145708646Y-90729561D02*
X145661027Y-90634323D01*
X145661027Y-90634323D02*
X145613408Y-90443847D01*
X145613408Y-90443847D02*
X145613408Y-90300990D01*
X145613408Y-90300990D02*
X145661027Y-90110514D01*
X145661027Y-90110514D02*
X145708646Y-90015276D01*
X145708646Y-90015276D02*
X145803884Y-89920038D01*
X145803884Y-89920038D02*
X145946741Y-89872419D01*
X145946741Y-89872419D02*
X146041979Y-89872419D01*
X146041979Y-89872419D02*
X146184836Y-89920038D01*
X146184836Y-89920038D02*
X146232455Y-89967657D01*
X147232455Y-90777180D02*
X147184836Y-90824800D01*
X147184836Y-90824800D02*
X147041979Y-90872419D01*
X147041979Y-90872419D02*
X146946741Y-90872419D01*
X146946741Y-90872419D02*
X146803884Y-90824800D01*
X146803884Y-90824800D02*
X146708646Y-90729561D01*
X146708646Y-90729561D02*
X146661027Y-90634323D01*
X146661027Y-90634323D02*
X146613408Y-90443847D01*
X146613408Y-90443847D02*
X146613408Y-90300990D01*
X146613408Y-90300990D02*
X146661027Y-90110514D01*
X146661027Y-90110514D02*
X146708646Y-90015276D01*
X146708646Y-90015276D02*
X146803884Y-89920038D01*
X146803884Y-89920038D02*
X146946741Y-89872419D01*
X146946741Y-89872419D02*
X147041979Y-89872419D01*
X147041979Y-89872419D02*
X147184836Y-89920038D01*
X147184836Y-89920038D02*
X147232455Y-89967657D01*
X134756265Y-90824800D02*
X134899122Y-90872419D01*
X134899122Y-90872419D02*
X135137217Y-90872419D01*
X135137217Y-90872419D02*
X135232455Y-90824800D01*
X135232455Y-90824800D02*
X135280074Y-90777180D01*
X135280074Y-90777180D02*
X135327693Y-90681942D01*
X135327693Y-90681942D02*
X135327693Y-90586704D01*
X135327693Y-90586704D02*
X135280074Y-90491466D01*
X135280074Y-90491466D02*
X135232455Y-90443847D01*
X135232455Y-90443847D02*
X135137217Y-90396228D01*
X135137217Y-90396228D02*
X134946741Y-90348609D01*
X134946741Y-90348609D02*
X134851503Y-90300990D01*
X134851503Y-90300990D02*
X134803884Y-90253371D01*
X134803884Y-90253371D02*
X134756265Y-90158133D01*
X134756265Y-90158133D02*
X134756265Y-90062895D01*
X134756265Y-90062895D02*
X134803884Y-89967657D01*
X134803884Y-89967657D02*
X134851503Y-89920038D01*
X134851503Y-89920038D02*
X134946741Y-89872419D01*
X134946741Y-89872419D02*
X135184836Y-89872419D01*
X135184836Y-89872419D02*
X135327693Y-89920038D01*
X135756265Y-90872419D02*
X135756265Y-89872419D01*
X131256265Y-90824800D02*
X131399122Y-90872419D01*
X131399122Y-90872419D02*
X131637217Y-90872419D01*
X131637217Y-90872419D02*
X131732455Y-90824800D01*
X131732455Y-90824800D02*
X131780074Y-90777180D01*
X131780074Y-90777180D02*
X131827693Y-90681942D01*
X131827693Y-90681942D02*
X131827693Y-90586704D01*
X131827693Y-90586704D02*
X131780074Y-90491466D01*
X131780074Y-90491466D02*
X131732455Y-90443847D01*
X131732455Y-90443847D02*
X131637217Y-90396228D01*
X131637217Y-90396228D02*
X131446741Y-90348609D01*
X131446741Y-90348609D02*
X131351503Y-90300990D01*
X131351503Y-90300990D02*
X131303884Y-90253371D01*
X131303884Y-90253371D02*
X131256265Y-90158133D01*
X131256265Y-90158133D02*
X131256265Y-90062895D01*
X131256265Y-90062895D02*
X131303884Y-89967657D01*
X131303884Y-89967657D02*
X131351503Y-89920038D01*
X131351503Y-89920038D02*
X131446741Y-89872419D01*
X131446741Y-89872419D02*
X131684836Y-89872419D01*
X131684836Y-89872419D02*
X131827693Y-89920038D01*
X132827693Y-90777180D02*
X132780074Y-90824800D01*
X132780074Y-90824800D02*
X132637217Y-90872419D01*
X132637217Y-90872419D02*
X132541979Y-90872419D01*
X132541979Y-90872419D02*
X132399122Y-90824800D01*
X132399122Y-90824800D02*
X132303884Y-90729561D01*
X132303884Y-90729561D02*
X132256265Y-90634323D01*
X132256265Y-90634323D02*
X132208646Y-90443847D01*
X132208646Y-90443847D02*
X132208646Y-90300990D01*
X132208646Y-90300990D02*
X132256265Y-90110514D01*
X132256265Y-90110514D02*
X132303884Y-90015276D01*
X132303884Y-90015276D02*
X132399122Y-89920038D01*
X132399122Y-89920038D02*
X132541979Y-89872419D01*
X132541979Y-89872419D02*
X132637217Y-89872419D01*
X132637217Y-89872419D02*
X132780074Y-89920038D01*
X132780074Y-89920038D02*
X132827693Y-89967657D01*
X133256265Y-90872419D02*
X133256265Y-89872419D01*
X133827693Y-90872419D02*
X133399122Y-90300990D01*
X133827693Y-89872419D02*
X133256265Y-90443847D01*
X128803884Y-90872419D02*
X128803884Y-89872419D01*
X129280074Y-90872419D02*
X129280074Y-89872419D01*
X129280074Y-89872419D02*
X129851502Y-90872419D01*
X129851502Y-90872419D02*
X129851502Y-89872419D01*
X130184836Y-89872419D02*
X130756264Y-89872419D01*
X130470550Y-90872419D02*
X130470550Y-89872419D01*
D11*
X128796521Y-77626357D02*
X128796521Y-74626357D01*
X128796521Y-74626357D02*
X129796521Y-76769214D01*
X129796521Y-76769214D02*
X130796521Y-74626357D01*
X130796521Y-74626357D02*
X130796521Y-77626357D01*
X133939378Y-77340642D02*
X133796521Y-77483500D01*
X133796521Y-77483500D02*
X133367949Y-77626357D01*
X133367949Y-77626357D02*
X133082235Y-77626357D01*
X133082235Y-77626357D02*
X132653664Y-77483500D01*
X132653664Y-77483500D02*
X132367949Y-77197785D01*
X132367949Y-77197785D02*
X132225092Y-76912071D01*
X132225092Y-76912071D02*
X132082235Y-76340642D01*
X132082235Y-76340642D02*
X132082235Y-75912071D01*
X132082235Y-75912071D02*
X132225092Y-75340642D01*
X132225092Y-75340642D02*
X132367949Y-75054928D01*
X132367949Y-75054928D02*
X132653664Y-74769214D01*
X132653664Y-74769214D02*
X133082235Y-74626357D01*
X133082235Y-74626357D02*
X133367949Y-74626357D01*
X133367949Y-74626357D02*
X133796521Y-74769214D01*
X133796521Y-74769214D02*
X133939378Y-74912071D01*
X135225092Y-77626357D02*
X135225092Y-74626357D01*
X135225092Y-74626357D02*
X136367949Y-74626357D01*
X136367949Y-74626357D02*
X136653664Y-74769214D01*
X136653664Y-74769214D02*
X136796521Y-74912071D01*
X136796521Y-74912071D02*
X136939378Y-75197785D01*
X136939378Y-75197785D02*
X136939378Y-75626357D01*
X136939378Y-75626357D02*
X136796521Y-75912071D01*
X136796521Y-75912071D02*
X136653664Y-76054928D01*
X136653664Y-76054928D02*
X136367949Y-76197785D01*
X136367949Y-76197785D02*
X135225092Y-76197785D01*
X138082235Y-74912071D02*
X138225092Y-74769214D01*
X138225092Y-74769214D02*
X138510807Y-74626357D01*
X138510807Y-74626357D02*
X139225092Y-74626357D01*
X139225092Y-74626357D02*
X139510807Y-74769214D01*
X139510807Y-74769214D02*
X139653664Y-74912071D01*
X139653664Y-74912071D02*
X139796521Y-75197785D01*
X139796521Y-75197785D02*
X139796521Y-75483500D01*
X139796521Y-75483500D02*
X139653664Y-75912071D01*
X139653664Y-75912071D02*
X137939378Y-77626357D01*
X137939378Y-77626357D02*
X139796521Y-77626357D01*
X142510807Y-74626357D02*
X141082235Y-74626357D01*
X141082235Y-74626357D02*
X140939378Y-76054928D01*
X140939378Y-76054928D02*
X141082235Y-75912071D01*
X141082235Y-75912071D02*
X141367950Y-75769214D01*
X141367950Y-75769214D02*
X142082235Y-75769214D01*
X142082235Y-75769214D02*
X142367950Y-75912071D01*
X142367950Y-75912071D02*
X142510807Y-76054928D01*
X142510807Y-76054928D02*
X142653664Y-76340642D01*
X142653664Y-76340642D02*
X142653664Y-77054928D01*
X142653664Y-77054928D02*
X142510807Y-77340642D01*
X142510807Y-77340642D02*
X142367950Y-77483500D01*
X142367950Y-77483500D02*
X142082235Y-77626357D01*
X142082235Y-77626357D02*
X141367950Y-77626357D01*
X141367950Y-77626357D02*
X141082235Y-77483500D01*
X141082235Y-77483500D02*
X140939378Y-77340642D01*
X145510807Y-77626357D02*
X143796521Y-77626357D01*
X144653664Y-77626357D02*
X144653664Y-74626357D01*
X144653664Y-74626357D02*
X144367950Y-75054928D01*
X144367950Y-75054928D02*
X144082235Y-75340642D01*
X144082235Y-75340642D02*
X143796521Y-75483500D01*
X148225093Y-74626357D02*
X146796521Y-74626357D01*
X146796521Y-74626357D02*
X146653664Y-76054928D01*
X146653664Y-76054928D02*
X146796521Y-75912071D01*
X146796521Y-75912071D02*
X147082236Y-75769214D01*
X147082236Y-75769214D02*
X147796521Y-75769214D01*
X147796521Y-75769214D02*
X148082236Y-75912071D01*
X148082236Y-75912071D02*
X148225093Y-76054928D01*
X148225093Y-76054928D02*
X148367950Y-76340642D01*
X148367950Y-76340642D02*
X148367950Y-77054928D01*
X148367950Y-77054928D02*
X148225093Y-77340642D01*
X148225093Y-77340642D02*
X148082236Y-77483500D01*
X148082236Y-77483500D02*
X147796521Y-77626357D01*
X147796521Y-77626357D02*
X147082236Y-77626357D01*
X147082236Y-77626357D02*
X146796521Y-77483500D01*
X146796521Y-77483500D02*
X146653664Y-77340642D01*
D10*
X139875312Y-90777180D02*
X139827693Y-90824800D01*
X139827693Y-90824800D02*
X139684836Y-90872419D01*
X139684836Y-90872419D02*
X139589598Y-90872419D01*
X139589598Y-90872419D02*
X139446741Y-90824800D01*
X139446741Y-90824800D02*
X139351503Y-90729561D01*
X139351503Y-90729561D02*
X139303884Y-90634323D01*
X139303884Y-90634323D02*
X139256265Y-90443847D01*
X139256265Y-90443847D02*
X139256265Y-90300990D01*
X139256265Y-90300990D02*
X139303884Y-90110514D01*
X139303884Y-90110514D02*
X139351503Y-90015276D01*
X139351503Y-90015276D02*
X139446741Y-89920038D01*
X139446741Y-89920038D02*
X139589598Y-89872419D01*
X139589598Y-89872419D02*
X139684836Y-89872419D01*
X139684836Y-89872419D02*
X139827693Y-89920038D01*
X139827693Y-89920038D02*
X139875312Y-89967657D01*
X140256265Y-90824800D02*
X140399122Y-90872419D01*
X140399122Y-90872419D02*
X140637217Y-90872419D01*
X140637217Y-90872419D02*
X140732455Y-90824800D01*
X140732455Y-90824800D02*
X140780074Y-90777180D01*
X140780074Y-90777180D02*
X140827693Y-90681942D01*
X140827693Y-90681942D02*
X140827693Y-90586704D01*
X140827693Y-90586704D02*
X140780074Y-90491466D01*
X140780074Y-90491466D02*
X140732455Y-90443847D01*
X140732455Y-90443847D02*
X140637217Y-90396228D01*
X140637217Y-90396228D02*
X140446741Y-90348609D01*
X140446741Y-90348609D02*
X140351503Y-90300990D01*
X140351503Y-90300990D02*
X140303884Y-90253371D01*
X140303884Y-90253371D02*
X140256265Y-90158133D01*
X140256265Y-90158133D02*
X140256265Y-90062895D01*
X140256265Y-90062895D02*
X140303884Y-89967657D01*
X140303884Y-89967657D02*
X140351503Y-89920038D01*
X140351503Y-89920038D02*
X140446741Y-89872419D01*
X140446741Y-89872419D02*
X140684836Y-89872419D01*
X140684836Y-89872419D02*
X140827693Y-89920038D01*
X141827693Y-89920038D02*
X141732455Y-89872419D01*
X141732455Y-89872419D02*
X141589598Y-89872419D01*
X141589598Y-89872419D02*
X141446741Y-89920038D01*
X141446741Y-89920038D02*
X141351503Y-90015276D01*
X141351503Y-90015276D02*
X141303884Y-90110514D01*
X141303884Y-90110514D02*
X141256265Y-90300990D01*
X141256265Y-90300990D02*
X141256265Y-90443847D01*
X141256265Y-90443847D02*
X141303884Y-90634323D01*
X141303884Y-90634323D02*
X141351503Y-90729561D01*
X141351503Y-90729561D02*
X141446741Y-90824800D01*
X141446741Y-90824800D02*
X141589598Y-90872419D01*
X141589598Y-90872419D02*
X141684836Y-90872419D01*
X141684836Y-90872419D02*
X141827693Y-90824800D01*
X141827693Y-90824800D02*
X141875312Y-90777180D01*
X141875312Y-90777180D02*
X141875312Y-90443847D01*
X141875312Y-90443847D02*
X141684836Y-90443847D01*
X142303884Y-90872419D02*
X142303884Y-89872419D01*
X142303884Y-89872419D02*
X142875312Y-90872419D01*
X142875312Y-90872419D02*
X142875312Y-89872419D01*
X143351503Y-90872419D02*
X143351503Y-89872419D01*
X143351503Y-89872419D02*
X143589598Y-89872419D01*
X143589598Y-89872419D02*
X143732455Y-89920038D01*
X143732455Y-89920038D02*
X143827693Y-90015276D01*
X143827693Y-90015276D02*
X143875312Y-90110514D01*
X143875312Y-90110514D02*
X143922931Y-90300990D01*
X143922931Y-90300990D02*
X143922931Y-90443847D01*
X143922931Y-90443847D02*
X143875312Y-90634323D01*
X143875312Y-90634323D02*
X143827693Y-90729561D01*
X143827693Y-90729561D02*
X143732455Y-90824800D01*
X143732455Y-90824800D02*
X143589598Y-90872419D01*
X143589598Y-90872419D02*
X143351503Y-90872419D01*
X136756265Y-90824800D02*
X136899122Y-90872419D01*
X136899122Y-90872419D02*
X137137217Y-90872419D01*
X137137217Y-90872419D02*
X137232455Y-90824800D01*
X137232455Y-90824800D02*
X137280074Y-90777180D01*
X137280074Y-90777180D02*
X137327693Y-90681942D01*
X137327693Y-90681942D02*
X137327693Y-90586704D01*
X137327693Y-90586704D02*
X137280074Y-90491466D01*
X137280074Y-90491466D02*
X137232455Y-90443847D01*
X137232455Y-90443847D02*
X137137217Y-90396228D01*
X137137217Y-90396228D02*
X136946741Y-90348609D01*
X136946741Y-90348609D02*
X136851503Y-90300990D01*
X136851503Y-90300990D02*
X136803884Y-90253371D01*
X136803884Y-90253371D02*
X136756265Y-90158133D01*
X136756265Y-90158133D02*
X136756265Y-90062895D01*
X136756265Y-90062895D02*
X136803884Y-89967657D01*
X136803884Y-89967657D02*
X136851503Y-89920038D01*
X136851503Y-89920038D02*
X136946741Y-89872419D01*
X136946741Y-89872419D02*
X137184836Y-89872419D01*
X137184836Y-89872419D02*
X137327693Y-89920038D01*
X137946741Y-89872419D02*
X138137217Y-89872419D01*
X138137217Y-89872419D02*
X138232455Y-89920038D01*
X138232455Y-89920038D02*
X138327693Y-90015276D01*
X138327693Y-90015276D02*
X138375312Y-90205752D01*
X138375312Y-90205752D02*
X138375312Y-90539085D01*
X138375312Y-90539085D02*
X138327693Y-90729561D01*
X138327693Y-90729561D02*
X138232455Y-90824800D01*
X138232455Y-90824800D02*
X138137217Y-90872419D01*
X138137217Y-90872419D02*
X137946741Y-90872419D01*
X137946741Y-90872419D02*
X137851503Y-90824800D01*
X137851503Y-90824800D02*
X137756265Y-90729561D01*
X137756265Y-90729561D02*
X137708646Y-90539085D01*
X137708646Y-90539085D02*
X137708646Y-90205752D01*
X137708646Y-90205752D02*
X137756265Y-90015276D01*
X137756265Y-90015276D02*
X137851503Y-89920038D01*
X137851503Y-89920038D02*
X137946741Y-89872419D01*
X113256265Y-100586704D02*
X113732455Y-100586704D01*
X113161027Y-100872419D02*
X113494360Y-99872419D01*
X113494360Y-99872419D02*
X113827693Y-100872419D01*
X114732455Y-100872419D02*
X114399122Y-100396228D01*
X114161027Y-100872419D02*
X114161027Y-99872419D01*
X114161027Y-99872419D02*
X114541979Y-99872419D01*
X114541979Y-99872419D02*
X114637217Y-99920038D01*
X114637217Y-99920038D02*
X114684836Y-99967657D01*
X114684836Y-99967657D02*
X114732455Y-100062895D01*
X114732455Y-100062895D02*
X114732455Y-100205752D01*
X114732455Y-100205752D02*
X114684836Y-100300990D01*
X114684836Y-100300990D02*
X114637217Y-100348609D01*
X114637217Y-100348609D02*
X114541979Y-100396228D01*
X114541979Y-100396228D02*
X114161027Y-100396228D01*
X115161027Y-100872419D02*
X115161027Y-99872419D01*
X115161027Y-99872419D02*
X115399122Y-99872419D01*
X115399122Y-99872419D02*
X115541979Y-99920038D01*
X115541979Y-99920038D02*
X115637217Y-100015276D01*
X115637217Y-100015276D02*
X115684836Y-100110514D01*
X115684836Y-100110514D02*
X115732455Y-100300990D01*
X115732455Y-100300990D02*
X115732455Y-100443847D01*
X115732455Y-100443847D02*
X115684836Y-100634323D01*
X115684836Y-100634323D02*
X115637217Y-100729561D01*
X115637217Y-100729561D02*
X115541979Y-100824800D01*
X115541979Y-100824800D02*
X115399122Y-100872419D01*
X115399122Y-100872419D02*
X115161027Y-100872419D01*
X116161027Y-99872419D02*
X116161027Y-100681942D01*
X116161027Y-100681942D02*
X116208646Y-100777180D01*
X116208646Y-100777180D02*
X116256265Y-100824800D01*
X116256265Y-100824800D02*
X116351503Y-100872419D01*
X116351503Y-100872419D02*
X116541979Y-100872419D01*
X116541979Y-100872419D02*
X116637217Y-100824800D01*
X116637217Y-100824800D02*
X116684836Y-100777180D01*
X116684836Y-100777180D02*
X116732455Y-100681942D01*
X116732455Y-100681942D02*
X116732455Y-99872419D01*
X117208646Y-100872419D02*
X117208646Y-99872419D01*
X117684836Y-100872419D02*
X117684836Y-99872419D01*
X117684836Y-99872419D02*
X118256264Y-100872419D01*
X118256264Y-100872419D02*
X118256264Y-99872419D01*
X118922931Y-99872419D02*
X119113407Y-99872419D01*
X119113407Y-99872419D02*
X119208645Y-99920038D01*
X119208645Y-99920038D02*
X119303883Y-100015276D01*
X119303883Y-100015276D02*
X119351502Y-100205752D01*
X119351502Y-100205752D02*
X119351502Y-100539085D01*
X119351502Y-100539085D02*
X119303883Y-100729561D01*
X119303883Y-100729561D02*
X119208645Y-100824800D01*
X119208645Y-100824800D02*
X119113407Y-100872419D01*
X119113407Y-100872419D02*
X118922931Y-100872419D01*
X118922931Y-100872419D02*
X118827693Y-100824800D01*
X118827693Y-100824800D02*
X118732455Y-100729561D01*
X118732455Y-100729561D02*
X118684836Y-100539085D01*
X118684836Y-100539085D02*
X118684836Y-100205752D01*
X118684836Y-100205752D02*
X118732455Y-100015276D01*
X118732455Y-100015276D02*
X118827693Y-99920038D01*
X118827693Y-99920038D02*
X118922931Y-99872419D01*
X120541979Y-100491466D02*
X121303884Y-100491466D01*
X121780074Y-100205752D02*
X122541979Y-100491466D01*
X122541979Y-100491466D02*
X121780074Y-100777180D01*
X123780074Y-100872419D02*
X123780074Y-99872419D01*
X123780074Y-99872419D02*
X124113407Y-100586704D01*
X124113407Y-100586704D02*
X124446740Y-99872419D01*
X124446740Y-99872419D02*
X124446740Y-100872419D01*
X125494359Y-100777180D02*
X125446740Y-100824800D01*
X125446740Y-100824800D02*
X125303883Y-100872419D01*
X125303883Y-100872419D02*
X125208645Y-100872419D01*
X125208645Y-100872419D02*
X125065788Y-100824800D01*
X125065788Y-100824800D02*
X124970550Y-100729561D01*
X124970550Y-100729561D02*
X124922931Y-100634323D01*
X124922931Y-100634323D02*
X124875312Y-100443847D01*
X124875312Y-100443847D02*
X124875312Y-100300990D01*
X124875312Y-100300990D02*
X124922931Y-100110514D01*
X124922931Y-100110514D02*
X124970550Y-100015276D01*
X124970550Y-100015276D02*
X125065788Y-99920038D01*
X125065788Y-99920038D02*
X125208645Y-99872419D01*
X125208645Y-99872419D02*
X125303883Y-99872419D01*
X125303883Y-99872419D02*
X125446740Y-99920038D01*
X125446740Y-99920038D02*
X125494359Y-99967657D01*
X125922931Y-100872419D02*
X125922931Y-99872419D01*
X125922931Y-99872419D02*
X126303883Y-99872419D01*
X126303883Y-99872419D02*
X126399121Y-99920038D01*
X126399121Y-99920038D02*
X126446740Y-99967657D01*
X126446740Y-99967657D02*
X126494359Y-100062895D01*
X126494359Y-100062895D02*
X126494359Y-100205752D01*
X126494359Y-100205752D02*
X126446740Y-100300990D01*
X126446740Y-100300990D02*
X126399121Y-100348609D01*
X126399121Y-100348609D02*
X126303883Y-100396228D01*
X126303883Y-100396228D02*
X125922931Y-100396228D01*
X126875312Y-99967657D02*
X126922931Y-99920038D01*
X126922931Y-99920038D02*
X127018169Y-99872419D01*
X127018169Y-99872419D02*
X127256264Y-99872419D01*
X127256264Y-99872419D02*
X127351502Y-99920038D01*
X127351502Y-99920038D02*
X127399121Y-99967657D01*
X127399121Y-99967657D02*
X127446740Y-100062895D01*
X127446740Y-100062895D02*
X127446740Y-100158133D01*
X127446740Y-100158133D02*
X127399121Y-100300990D01*
X127399121Y-100300990D02*
X126827693Y-100872419D01*
X126827693Y-100872419D02*
X127446740Y-100872419D01*
X128351502Y-99872419D02*
X127875312Y-99872419D01*
X127875312Y-99872419D02*
X127827693Y-100348609D01*
X127827693Y-100348609D02*
X127875312Y-100300990D01*
X127875312Y-100300990D02*
X127970550Y-100253371D01*
X127970550Y-100253371D02*
X128208645Y-100253371D01*
X128208645Y-100253371D02*
X128303883Y-100300990D01*
X128303883Y-100300990D02*
X128351502Y-100348609D01*
X128351502Y-100348609D02*
X128399121Y-100443847D01*
X128399121Y-100443847D02*
X128399121Y-100681942D01*
X128399121Y-100681942D02*
X128351502Y-100777180D01*
X128351502Y-100777180D02*
X128303883Y-100824800D01*
X128303883Y-100824800D02*
X128208645Y-100872419D01*
X128208645Y-100872419D02*
X127970550Y-100872419D01*
X127970550Y-100872419D02*
X127875312Y-100824800D01*
X127875312Y-100824800D02*
X127827693Y-100777180D01*
X129351502Y-100872419D02*
X128780074Y-100872419D01*
X129065788Y-100872419D02*
X129065788Y-99872419D01*
X129065788Y-99872419D02*
X128970550Y-100015276D01*
X128970550Y-100015276D02*
X128875312Y-100110514D01*
X128875312Y-100110514D02*
X128780074Y-100158133D01*
X130256264Y-99872419D02*
X129780074Y-99872419D01*
X129780074Y-99872419D02*
X129732455Y-100348609D01*
X129732455Y-100348609D02*
X129780074Y-100300990D01*
X129780074Y-100300990D02*
X129875312Y-100253371D01*
X129875312Y-100253371D02*
X130113407Y-100253371D01*
X130113407Y-100253371D02*
X130208645Y-100300990D01*
X130208645Y-100300990D02*
X130256264Y-100348609D01*
X130256264Y-100348609D02*
X130303883Y-100443847D01*
X130303883Y-100443847D02*
X130303883Y-100681942D01*
X130303883Y-100681942D02*
X130256264Y-100777180D01*
X130256264Y-100777180D02*
X130208645Y-100824800D01*
X130208645Y-100824800D02*
X130113407Y-100872419D01*
X130113407Y-100872419D02*
X129875312Y-100872419D01*
X129875312Y-100872419D02*
X129780074Y-100824800D01*
X129780074Y-100824800D02*
X129732455Y-100777180D01*
X131351503Y-99872419D02*
X131684836Y-100872419D01*
X131684836Y-100872419D02*
X132018169Y-99872419D01*
X132875312Y-100872419D02*
X132303884Y-100872419D01*
X132589598Y-100872419D02*
X132589598Y-99872419D01*
X132589598Y-99872419D02*
X132494360Y-100015276D01*
X132494360Y-100015276D02*
X132399122Y-100110514D01*
X132399122Y-100110514D02*
X132303884Y-100158133D01*
X133303884Y-100777180D02*
X133351503Y-100824800D01*
X133351503Y-100824800D02*
X133303884Y-100872419D01*
X133303884Y-100872419D02*
X133256265Y-100824800D01*
X133256265Y-100824800D02*
X133303884Y-100777180D01*
X133303884Y-100777180D02*
X133303884Y-100872419D01*
X133970550Y-99872419D02*
X134065788Y-99872419D01*
X134065788Y-99872419D02*
X134161026Y-99920038D01*
X134161026Y-99920038D02*
X134208645Y-99967657D01*
X134208645Y-99967657D02*
X134256264Y-100062895D01*
X134256264Y-100062895D02*
X134303883Y-100253371D01*
X134303883Y-100253371D02*
X134303883Y-100491466D01*
X134303883Y-100491466D02*
X134256264Y-100681942D01*
X134256264Y-100681942D02*
X134208645Y-100777180D01*
X134208645Y-100777180D02*
X134161026Y-100824800D01*
X134161026Y-100824800D02*
X134065788Y-100872419D01*
X134065788Y-100872419D02*
X133970550Y-100872419D01*
X133970550Y-100872419D02*
X133875312Y-100824800D01*
X133875312Y-100824800D02*
X133827693Y-100777180D01*
X133827693Y-100777180D02*
X133780074Y-100681942D01*
X133780074Y-100681942D02*
X133732455Y-100491466D01*
X133732455Y-100491466D02*
X133732455Y-100253371D01*
X133732455Y-100253371D02*
X133780074Y-100062895D01*
X133780074Y-100062895D02*
X133827693Y-99967657D01*
X133827693Y-99967657D02*
X133875312Y-99920038D01*
X133875312Y-99920038D02*
X133970550Y-99872419D01*
X135399122Y-99872419D02*
X135637217Y-100872419D01*
X135637217Y-100872419D02*
X135827693Y-100158133D01*
X135827693Y-100158133D02*
X136018169Y-100872419D01*
X136018169Y-100872419D02*
X136256265Y-99872419D01*
X136780074Y-100872419D02*
X136684836Y-100824800D01*
X136684836Y-100824800D02*
X136637217Y-100777180D01*
X136637217Y-100777180D02*
X136589598Y-100681942D01*
X136589598Y-100681942D02*
X136589598Y-100396228D01*
X136589598Y-100396228D02*
X136637217Y-100300990D01*
X136637217Y-100300990D02*
X136684836Y-100253371D01*
X136684836Y-100253371D02*
X136780074Y-100205752D01*
X136780074Y-100205752D02*
X136922931Y-100205752D01*
X136922931Y-100205752D02*
X137018169Y-100253371D01*
X137018169Y-100253371D02*
X137065788Y-100300990D01*
X137065788Y-100300990D02*
X137113407Y-100396228D01*
X137113407Y-100396228D02*
X137113407Y-100681942D01*
X137113407Y-100681942D02*
X137065788Y-100777180D01*
X137065788Y-100777180D02*
X137018169Y-100824800D01*
X137018169Y-100824800D02*
X136922931Y-100872419D01*
X136922931Y-100872419D02*
X136780074Y-100872419D01*
X137541979Y-100205752D02*
X137541979Y-101062895D01*
X137541979Y-101062895D02*
X137494360Y-101158133D01*
X137494360Y-101158133D02*
X137399122Y-101205752D01*
X137399122Y-101205752D02*
X137351503Y-101205752D01*
X137541979Y-99872419D02*
X137494360Y-99920038D01*
X137494360Y-99920038D02*
X137541979Y-99967657D01*
X137541979Y-99967657D02*
X137589598Y-99920038D01*
X137589598Y-99920038D02*
X137541979Y-99872419D01*
X137541979Y-99872419D02*
X137541979Y-99967657D01*
X137875312Y-100205752D02*
X138256264Y-100205752D01*
X138018169Y-99872419D02*
X138018169Y-100729561D01*
X138018169Y-100729561D02*
X138065788Y-100824800D01*
X138065788Y-100824800D02*
X138161026Y-100872419D01*
X138161026Y-100872419D02*
X138256264Y-100872419D01*
X138970550Y-100824800D02*
X138875312Y-100872419D01*
X138875312Y-100872419D02*
X138684836Y-100872419D01*
X138684836Y-100872419D02*
X138589598Y-100824800D01*
X138589598Y-100824800D02*
X138541979Y-100729561D01*
X138541979Y-100729561D02*
X138541979Y-100348609D01*
X138541979Y-100348609D02*
X138589598Y-100253371D01*
X138589598Y-100253371D02*
X138684836Y-100205752D01*
X138684836Y-100205752D02*
X138875312Y-100205752D01*
X138875312Y-100205752D02*
X138970550Y-100253371D01*
X138970550Y-100253371D02*
X139018169Y-100348609D01*
X139018169Y-100348609D02*
X139018169Y-100443847D01*
X139018169Y-100443847D02*
X138541979Y-100539085D01*
X139875312Y-100824800D02*
X139780074Y-100872419D01*
X139780074Y-100872419D02*
X139589598Y-100872419D01*
X139589598Y-100872419D02*
X139494360Y-100824800D01*
X139494360Y-100824800D02*
X139446741Y-100777180D01*
X139446741Y-100777180D02*
X139399122Y-100681942D01*
X139399122Y-100681942D02*
X139399122Y-100396228D01*
X139399122Y-100396228D02*
X139446741Y-100300990D01*
X139446741Y-100300990D02*
X139494360Y-100253371D01*
X139494360Y-100253371D02*
X139589598Y-100205752D01*
X139589598Y-100205752D02*
X139780074Y-100205752D01*
X139780074Y-100205752D02*
X139875312Y-100253371D01*
X140208646Y-100205752D02*
X140732455Y-100205752D01*
X140732455Y-100205752D02*
X140208646Y-100872419D01*
X140208646Y-100872419D02*
X140732455Y-100872419D01*
D12*
X107286666Y-98394819D02*
X106953333Y-97918628D01*
X106715238Y-98394819D02*
X106715238Y-97394819D01*
X106715238Y-97394819D02*
X107096190Y-97394819D01*
X107096190Y-97394819D02*
X107191428Y-97442438D01*
X107191428Y-97442438D02*
X107239047Y-97490057D01*
X107239047Y-97490057D02*
X107286666Y-97585295D01*
X107286666Y-97585295D02*
X107286666Y-97728152D01*
X107286666Y-97728152D02*
X107239047Y-97823390D01*
X107239047Y-97823390D02*
X107191428Y-97871009D01*
X107191428Y-97871009D02*
X107096190Y-97918628D01*
X107096190Y-97918628D02*
X106715238Y-97918628D01*
X107715238Y-97871009D02*
X108048571Y-97871009D01*
X108191428Y-98394819D02*
X107715238Y-98394819D01*
X107715238Y-98394819D02*
X107715238Y-97394819D01*
X107715238Y-97394819D02*
X108191428Y-97394819D01*
X108953333Y-97871009D02*
X108620000Y-97871009D01*
X108620000Y-98394819D02*
X108620000Y-97394819D01*
X108620000Y-97394819D02*
X109096190Y-97394819D01*
X109620000Y-97394819D02*
X109620000Y-97632914D01*
X109381905Y-97537676D02*
X109620000Y-97632914D01*
X109620000Y-97632914D02*
X109858095Y-97537676D01*
X109477143Y-97823390D02*
X109620000Y-97632914D01*
X109620000Y-97632914D02*
X109762857Y-97823390D01*
X110381905Y-97394819D02*
X110381905Y-97632914D01*
X110143810Y-97537676D02*
X110381905Y-97632914D01*
X110381905Y-97632914D02*
X110620000Y-97537676D01*
X110239048Y-97823390D02*
X110381905Y-97632914D01*
X110381905Y-97632914D02*
X110524762Y-97823390D01*
X108799104Y-78667142D02*
X108799104Y-78190952D01*
X109084819Y-78762380D02*
X108084819Y-78429047D01*
X108084819Y-78429047D02*
X109084819Y-78095714D01*
X109084819Y-77762380D02*
X108418152Y-77762380D01*
X108608628Y-77762380D02*
X108513390Y-77714761D01*
X108513390Y-77714761D02*
X108465771Y-77667142D01*
X108465771Y-77667142D02*
X108418152Y-77571904D01*
X108418152Y-77571904D02*
X108418152Y-77476666D01*
X109084819Y-76714761D02*
X108084819Y-76714761D01*
X109037200Y-76714761D02*
X109084819Y-76809999D01*
X109084819Y-76809999D02*
X109084819Y-77000475D01*
X109084819Y-77000475D02*
X109037200Y-77095713D01*
X109037200Y-77095713D02*
X108989580Y-77143332D01*
X108989580Y-77143332D02*
X108894342Y-77190951D01*
X108894342Y-77190951D02*
X108608628Y-77190951D01*
X108608628Y-77190951D02*
X108513390Y-77143332D01*
X108513390Y-77143332D02*
X108465771Y-77095713D01*
X108465771Y-77095713D02*
X108418152Y-77000475D01*
X108418152Y-77000475D02*
X108418152Y-76809999D01*
X108418152Y-76809999D02*
X108465771Y-76714761D01*
X108418152Y-75809999D02*
X109084819Y-75809999D01*
X108418152Y-76238570D02*
X108941961Y-76238570D01*
X108941961Y-76238570D02*
X109037200Y-76190951D01*
X109037200Y-76190951D02*
X109084819Y-76095713D01*
X109084819Y-76095713D02*
X109084819Y-75952856D01*
X109084819Y-75952856D02*
X109037200Y-75857618D01*
X109037200Y-75857618D02*
X108989580Y-75809999D01*
X109084819Y-75333808D02*
X108418152Y-75333808D01*
X108084819Y-75333808D02*
X108132438Y-75381427D01*
X108132438Y-75381427D02*
X108180057Y-75333808D01*
X108180057Y-75333808D02*
X108132438Y-75286189D01*
X108132438Y-75286189D02*
X108084819Y-75333808D01*
X108084819Y-75333808D02*
X108180057Y-75333808D01*
X108418152Y-74857618D02*
X109084819Y-74857618D01*
X108513390Y-74857618D02*
X108465771Y-74809999D01*
X108465771Y-74809999D02*
X108418152Y-74714761D01*
X108418152Y-74714761D02*
X108418152Y-74571904D01*
X108418152Y-74571904D02*
X108465771Y-74476666D01*
X108465771Y-74476666D02*
X108561009Y-74429047D01*
X108561009Y-74429047D02*
X109084819Y-74429047D01*
X109084819Y-73809999D02*
X109037200Y-73905237D01*
X109037200Y-73905237D02*
X108989580Y-73952856D01*
X108989580Y-73952856D02*
X108894342Y-74000475D01*
X108894342Y-74000475D02*
X108608628Y-74000475D01*
X108608628Y-74000475D02*
X108513390Y-73952856D01*
X108513390Y-73952856D02*
X108465771Y-73905237D01*
X108465771Y-73905237D02*
X108418152Y-73809999D01*
X108418152Y-73809999D02*
X108418152Y-73667142D01*
X108418152Y-73667142D02*
X108465771Y-73571904D01*
X108465771Y-73571904D02*
X108513390Y-73524285D01*
X108513390Y-73524285D02*
X108608628Y-73476666D01*
X108608628Y-73476666D02*
X108894342Y-73476666D01*
X108894342Y-73476666D02*
X108989580Y-73524285D01*
X108989580Y-73524285D02*
X109037200Y-73571904D01*
X109037200Y-73571904D02*
X109084819Y-73667142D01*
X109084819Y-73667142D02*
X109084819Y-73809999D01*
X109180057Y-73286190D02*
X109180057Y-72524285D01*
X109084819Y-72286189D02*
X108084819Y-72286189D01*
X108084819Y-72286189D02*
X109084819Y-71714761D01*
X109084819Y-71714761D02*
X108084819Y-71714761D01*
X109084819Y-70809999D02*
X108561009Y-70809999D01*
X108561009Y-70809999D02*
X108465771Y-70857618D01*
X108465771Y-70857618D02*
X108418152Y-70952856D01*
X108418152Y-70952856D02*
X108418152Y-71143332D01*
X108418152Y-71143332D02*
X108465771Y-71238570D01*
X109037200Y-70809999D02*
X109084819Y-70905237D01*
X109084819Y-70905237D02*
X109084819Y-71143332D01*
X109084819Y-71143332D02*
X109037200Y-71238570D01*
X109037200Y-71238570D02*
X108941961Y-71286189D01*
X108941961Y-71286189D02*
X108846723Y-71286189D01*
X108846723Y-71286189D02*
X108751485Y-71238570D01*
X108751485Y-71238570D02*
X108703866Y-71143332D01*
X108703866Y-71143332D02*
X108703866Y-70905237D01*
X108703866Y-70905237D02*
X108656247Y-70809999D01*
X108418152Y-70333808D02*
X109084819Y-70333808D01*
X108513390Y-70333808D02*
X108465771Y-70286189D01*
X108465771Y-70286189D02*
X108418152Y-70190951D01*
X108418152Y-70190951D02*
X108418152Y-70048094D01*
X108418152Y-70048094D02*
X108465771Y-69952856D01*
X108465771Y-69952856D02*
X108561009Y-69905237D01*
X108561009Y-69905237D02*
X109084819Y-69905237D01*
X109084819Y-69286189D02*
X109037200Y-69381427D01*
X109037200Y-69381427D02*
X108989580Y-69429046D01*
X108989580Y-69429046D02*
X108894342Y-69476665D01*
X108894342Y-69476665D02*
X108608628Y-69476665D01*
X108608628Y-69476665D02*
X108513390Y-69429046D01*
X108513390Y-69429046D02*
X108465771Y-69381427D01*
X108465771Y-69381427D02*
X108418152Y-69286189D01*
X108418152Y-69286189D02*
X108418152Y-69143332D01*
X108418152Y-69143332D02*
X108465771Y-69048094D01*
X108465771Y-69048094D02*
X108513390Y-69000475D01*
X108513390Y-69000475D02*
X108608628Y-68952856D01*
X108608628Y-68952856D02*
X108894342Y-68952856D01*
X108894342Y-68952856D02*
X108989580Y-69000475D01*
X108989580Y-69000475D02*
X109037200Y-69048094D01*
X109037200Y-69048094D02*
X109084819Y-69143332D01*
X109084819Y-69143332D02*
X109084819Y-69286189D01*
X109881904Y-57845180D02*
X109881904Y-57035657D01*
X109881904Y-57035657D02*
X109834285Y-56940419D01*
X109834285Y-56940419D02*
X109786666Y-56892800D01*
X109786666Y-56892800D02*
X109691428Y-56845180D01*
X109691428Y-56845180D02*
X109500952Y-56845180D01*
X109500952Y-56845180D02*
X109405714Y-56892800D01*
X109405714Y-56892800D02*
X109358095Y-56940419D01*
X109358095Y-56940419D02*
X109310476Y-57035657D01*
X109310476Y-57035657D02*
X109310476Y-57845180D01*
X108881904Y-56892800D02*
X108739047Y-56845180D01*
X108739047Y-56845180D02*
X108500952Y-56845180D01*
X108500952Y-56845180D02*
X108405714Y-56892800D01*
X108405714Y-56892800D02*
X108358095Y-56940419D01*
X108358095Y-56940419D02*
X108310476Y-57035657D01*
X108310476Y-57035657D02*
X108310476Y-57130895D01*
X108310476Y-57130895D02*
X108358095Y-57226133D01*
X108358095Y-57226133D02*
X108405714Y-57273752D01*
X108405714Y-57273752D02*
X108500952Y-57321371D01*
X108500952Y-57321371D02*
X108691428Y-57368990D01*
X108691428Y-57368990D02*
X108786666Y-57416609D01*
X108786666Y-57416609D02*
X108834285Y-57464228D01*
X108834285Y-57464228D02*
X108881904Y-57559466D01*
X108881904Y-57559466D02*
X108881904Y-57654704D01*
X108881904Y-57654704D02*
X108834285Y-57749942D01*
X108834285Y-57749942D02*
X108786666Y-57797561D01*
X108786666Y-57797561D02*
X108691428Y-57845180D01*
X108691428Y-57845180D02*
X108453333Y-57845180D01*
X108453333Y-57845180D02*
X108310476Y-57797561D01*
X107548571Y-57368990D02*
X107405714Y-57321371D01*
X107405714Y-57321371D02*
X107358095Y-57273752D01*
X107358095Y-57273752D02*
X107310476Y-57178514D01*
X107310476Y-57178514D02*
X107310476Y-57035657D01*
X107310476Y-57035657D02*
X107358095Y-56940419D01*
X107358095Y-56940419D02*
X107405714Y-56892800D01*
X107405714Y-56892800D02*
X107500952Y-56845180D01*
X107500952Y-56845180D02*
X107881904Y-56845180D01*
X107881904Y-56845180D02*
X107881904Y-57845180D01*
X107881904Y-57845180D02*
X107548571Y-57845180D01*
X107548571Y-57845180D02*
X107453333Y-57797561D01*
X107453333Y-57797561D02*
X107405714Y-57749942D01*
X107405714Y-57749942D02*
X107358095Y-57654704D01*
X107358095Y-57654704D02*
X107358095Y-57559466D01*
X107358095Y-57559466D02*
X107405714Y-57464228D01*
X107405714Y-57464228D02*
X107453333Y-57416609D01*
X107453333Y-57416609D02*
X107548571Y-57368990D01*
X107548571Y-57368990D02*
X107881904Y-57368990D01*
D13*
%TO.C,REF\u002A\u002A*%
X99600000Y-53360000D02*
X99600000Y-96800000D01*
X99600000Y-53360000D02*
X104680000Y-53360000D01*
X99600000Y-96800000D02*
X117640000Y-96800000D01*
X102270000Y-56030000D02*
X99600000Y-56030000D01*
X102270000Y-94130000D02*
X99600000Y-94130000D01*
X102270000Y-94130000D02*
X102270000Y-56030000D01*
X104680000Y-50820000D02*
X112560000Y-50820000D01*
X104680000Y-61240000D02*
X104680000Y-50820000D01*
X112560000Y-50820000D02*
X112560000Y-61240000D01*
X112560000Y-61240000D02*
X104680000Y-61240000D01*
X114970000Y-56030000D02*
X117640000Y-56030000D01*
X114970000Y-91590000D02*
X114970000Y-56030000D01*
X114970000Y-91590000D02*
X114970000Y-94130000D01*
X114970000Y-91590000D02*
X117640000Y-91590000D01*
X114970000Y-94130000D02*
X117640000Y-94130000D01*
X117640000Y-53360000D02*
X112560000Y-53360000D01*
X117640000Y-91590000D02*
X117640000Y-53360000D01*
X117640000Y-96800000D02*
X117640000Y-94130000D01*
%TD*%
M02*
