%TF.GenerationSoftware,KiCad,Pcbnew,9.0.2-9.0.2-0~ubuntu22.04.1*%
%TF.CreationDate,2025-06-18T20:33:50+02:00*%
%TF.ProjectId,salaemcp,73616c61-656d-4637-902e-6b696361645f,rev?*%
%TF.SameCoordinates,Original*%
%TF.FileFunction,Copper,L2,Bot*%
%TF.FilePolarity,Positive*%
%FSLAX46Y46*%
G04 Gerber Fmt 4.6, Leading zero omitted, Abs format (unit mm)*
G04 Created by KiCad (PCBNEW 9.0.2-9.0.2-0~ubuntu22.04.1) date 2025-06-18 20:33:50*
%MOMM*%
%LPD*%
G01*
G04 APERTURE LIST*
%TA.AperFunction,ComponentPad*%
%ADD10O,1.600000X1.600000*%
%TD*%
%TA.AperFunction,ComponentPad*%
%ADD11R,1.600000X1.600000*%
%TD*%
%TA.AperFunction,Conductor*%
%ADD12C,1.000000*%
%TD*%
G04 APERTURE END LIST*
D10*
%TO.P,,2*%
%TO.N,N/C*%
X132500000Y-93000000D03*
%TD*%
%TO.P,,5*%
%TO.N,N/C*%
X140000000Y-93000000D03*
%TD*%
%TO.P,,4*%
%TO.N,N/C*%
X137500000Y-93000000D03*
%TD*%
%TO.P,,1*%
%TO.N,N/C*%
X130000000Y-93000000D03*
%TD*%
%TO.P,,6*%
%TO.N,N/C*%
X142500000Y-93000000D03*
%TD*%
%TO.P,,3*%
%TO.N,N/C*%
X135000000Y-93000000D03*
%TD*%
%TO.P,,7*%
%TO.N,N/C*%
X145000000Y-93000000D03*
%TD*%
D11*
%TO.P,REF\u002A\u002A,1*%
%TO.N,N/C*%
X116240000Y-92860000D03*
D10*
%TO.P,REF\u002A\u002A,2*%
X116240000Y-90320000D03*
%TO.P,REF\u002A\u002A,3*%
X116240000Y-87780000D03*
%TO.P,REF\u002A\u002A,4*%
X116240000Y-85240000D03*
%TO.P,REF\u002A\u002A,5*%
X116240000Y-82700000D03*
%TO.P,REF\u002A\u002A,6*%
X116240000Y-80160000D03*
%TO.P,REF\u002A\u002A,7*%
X116240000Y-77620000D03*
%TO.P,REF\u002A\u002A,8*%
X116240000Y-75080000D03*
%TO.P,REF\u002A\u002A,9*%
X116240000Y-72540000D03*
%TO.P,REF\u002A\u002A,10*%
X116240000Y-70000000D03*
%TO.P,REF\u002A\u002A,11*%
X116240000Y-67460000D03*
%TO.P,REF\u002A\u002A,12*%
X116240000Y-64920000D03*
%TO.P,REF\u002A\u002A,13*%
X116240000Y-62380000D03*
%TO.P,REF\u002A\u002A,14*%
X116240000Y-59840000D03*
%TO.P,REF\u002A\u002A,15*%
X116240000Y-57300000D03*
%TO.P,REF\u002A\u002A,16*%
X101000000Y-57300000D03*
%TO.P,REF\u002A\u002A,17*%
X101000000Y-59840000D03*
%TO.P,REF\u002A\u002A,18*%
X101000000Y-62380000D03*
%TO.P,REF\u002A\u002A,19*%
X101000000Y-64920000D03*
%TO.P,REF\u002A\u002A,20*%
X101000000Y-67460000D03*
%TO.P,REF\u002A\u002A,21*%
X101000000Y-70000000D03*
%TO.P,REF\u002A\u002A,22*%
X101000000Y-72540000D03*
%TO.P,REF\u002A\u002A,23*%
X101000000Y-75080000D03*
%TO.P,REF\u002A\u002A,24*%
X101000000Y-77620000D03*
%TO.P,REF\u002A\u002A,25*%
X101000000Y-80160000D03*
%TO.P,REF\u002A\u002A,26*%
X101000000Y-82700000D03*
%TO.P,REF\u002A\u002A,27*%
X101000000Y-85240000D03*
%TO.P,REF\u002A\u002A,28*%
X101000000Y-87780000D03*
%TO.P,REF\u002A\u002A,29*%
X101000000Y-90320000D03*
%TO.P,REF\u002A\u002A,30*%
X101000000Y-92860000D03*
%TD*%
D12*
%TO.N,*%
X132500000Y-97500000D02*
X108000000Y-97500000D01*
X137500000Y-58000000D02*
X136800000Y-57300000D01*
X103000000Y-91000000D02*
X102320000Y-90320000D01*
X135000000Y-60500000D02*
X134340000Y-59840000D01*
X134340000Y-59840000D02*
X116240000Y-59840000D01*
X104500000Y-102000000D02*
X103000000Y-100500000D01*
X102320000Y-90320000D02*
X101000000Y-90320000D01*
X103000000Y-100500000D02*
X103000000Y-91000000D01*
X137500000Y-93000000D02*
X137500000Y-58000000D01*
X107000000Y-96500000D02*
X107000000Y-59000000D01*
X142500000Y-93000000D02*
X142500000Y-102000000D01*
X136800000Y-57300000D02*
X116240000Y-57300000D01*
X135000000Y-93000000D02*
X135000000Y-60500000D01*
X108000000Y-97500000D02*
X107000000Y-96500000D01*
X142500000Y-102000000D02*
X104500000Y-102000000D01*
X132500000Y-93000000D02*
X132500000Y-97500000D01*
X107000000Y-59000000D02*
X105300000Y-57300000D01*
X105300000Y-57300000D02*
X101000000Y-57300000D01*
%TD*%
%TA.AperFunction,NonConductor*%
G36*
X101924259Y-91345594D02*
G01*
X101950965Y-91365885D01*
X101963181Y-91378101D01*
X101996666Y-91439424D01*
X101999500Y-91465782D01*
X101999500Y-91735308D01*
X101979815Y-91802347D01*
X101927011Y-91848102D01*
X101857853Y-91858046D01*
X101802615Y-91835627D01*
X101681609Y-91747712D01*
X101635546Y-91724242D01*
X101588917Y-91700483D01*
X101538123Y-91652511D01*
X101521328Y-91584690D01*
X101543865Y-91518555D01*
X101588917Y-91479516D01*
X101681610Y-91432287D01*
X101790399Y-91353248D01*
X101856205Y-91329768D01*
X101924259Y-91345594D01*
G37*
%TD.AperFunction*%
%TA.AperFunction,NonConductor*%
G36*
X136401257Y-58320185D02*
G01*
X136421899Y-58336819D01*
X136463181Y-58378101D01*
X136496666Y-58439424D01*
X136499500Y-58465782D01*
X136499500Y-92124237D01*
X136494316Y-92141890D01*
X136494143Y-92160291D01*
X136481382Y-92185938D01*
X136479815Y-92191276D01*
X136479179Y-92192256D01*
X136477551Y-92194737D01*
X136387713Y-92318390D01*
X136357407Y-92377867D01*
X136353679Y-92383551D01*
X136332024Y-92401960D01*
X136312510Y-92422623D01*
X136305752Y-92424296D01*
X136300447Y-92428807D01*
X136272273Y-92432586D01*
X136244688Y-92439418D01*
X136238097Y-92437172D01*
X136231197Y-92438098D01*
X136205454Y-92426047D01*
X136178554Y-92416880D01*
X136173560Y-92411117D01*
X136167918Y-92408476D01*
X136159014Y-92394329D01*
X136139516Y-92371828D01*
X136112286Y-92318388D01*
X136024182Y-92197122D01*
X136000702Y-92131316D01*
X136000500Y-92124237D01*
X136000500Y-60401456D01*
X135962052Y-60208170D01*
X135962051Y-60208169D01*
X135962051Y-60208165D01*
X135962049Y-60208160D01*
X135886635Y-60026092D01*
X135886628Y-60026079D01*
X135777139Y-59862218D01*
X135777136Y-59862214D01*
X135634686Y-59719764D01*
X135634655Y-59719735D01*
X135121479Y-59206559D01*
X135121459Y-59206537D01*
X134977785Y-59062863D01*
X134977781Y-59062860D01*
X134813920Y-58953371D01*
X134813911Y-58953366D01*
X134741315Y-58923296D01*
X134685165Y-58900038D01*
X134631836Y-58877949D01*
X134631832Y-58877948D01*
X134631828Y-58877946D01*
X134535188Y-58858724D01*
X134438544Y-58839500D01*
X134438541Y-58839500D01*
X117115762Y-58839500D01*
X117048723Y-58819815D01*
X117042877Y-58815818D01*
X116921613Y-58727715D01*
X116921612Y-58727714D01*
X116921610Y-58727713D01*
X116828917Y-58680483D01*
X116778123Y-58632511D01*
X116761328Y-58564690D01*
X116783865Y-58498555D01*
X116828917Y-58459516D01*
X116921610Y-58412287D01*
X117042877Y-58324181D01*
X117108683Y-58300702D01*
X117115762Y-58300500D01*
X136334218Y-58300500D01*
X136401257Y-58320185D01*
G37*
%TD.AperFunction*%
%TA.AperFunction,NonConductor*%
G36*
X104901257Y-58320185D02*
G01*
X104921899Y-58336819D01*
X105963181Y-59378101D01*
X105996666Y-59439424D01*
X105999500Y-59465782D01*
X105999500Y-96598541D01*
X105999500Y-96598543D01*
X105999499Y-96598543D01*
X106037947Y-96791829D01*
X106037950Y-96791839D01*
X106113364Y-96973907D01*
X106113371Y-96973920D01*
X106222859Y-97137780D01*
X106222860Y-97137781D01*
X106222861Y-97137782D01*
X106362218Y-97277139D01*
X106362219Y-97277139D01*
X106369286Y-97284206D01*
X106369285Y-97284206D01*
X106369289Y-97284209D01*
X107362215Y-98277137D01*
X107362219Y-98277140D01*
X107526079Y-98386628D01*
X107526085Y-98386631D01*
X107526086Y-98386632D01*
X107708165Y-98462052D01*
X107901455Y-98500500D01*
X107901458Y-98500501D01*
X107901460Y-98500501D01*
X108104655Y-98500501D01*
X108104675Y-98500500D01*
X132598543Y-98500500D01*
X132728582Y-98474632D01*
X132791835Y-98462051D01*
X132973914Y-98386632D01*
X133137782Y-98277139D01*
X133277139Y-98137782D01*
X133386632Y-97973914D01*
X133462051Y-97791835D01*
X133500500Y-97598541D01*
X133500500Y-93875761D01*
X133505683Y-93858107D01*
X133505857Y-93839707D01*
X133518618Y-93814057D01*
X133520185Y-93808722D01*
X133520821Y-93807742D01*
X133522440Y-93805272D01*
X133612287Y-93681610D01*
X133642594Y-93622127D01*
X133646321Y-93616448D01*
X133667973Y-93598040D01*
X133687490Y-93577376D01*
X133694248Y-93575702D01*
X133699554Y-93571192D01*
X133727724Y-93567412D01*
X133755311Y-93560581D01*
X133761901Y-93562826D01*
X133768803Y-93561901D01*
X133794541Y-93573949D01*
X133821446Y-93583118D01*
X133826440Y-93588882D01*
X133832082Y-93591523D01*
X133840984Y-93605666D01*
X133860485Y-93628172D01*
X133887715Y-93681613D01*
X134008028Y-93847213D01*
X134152786Y-93991971D01*
X134253607Y-94065220D01*
X134318390Y-94112287D01*
X134434607Y-94171503D01*
X134500776Y-94205218D01*
X134500778Y-94205218D01*
X134500781Y-94205220D01*
X134605137Y-94239127D01*
X134695465Y-94268477D01*
X134796557Y-94284488D01*
X134897648Y-94300500D01*
X134897649Y-94300500D01*
X135102351Y-94300500D01*
X135102352Y-94300500D01*
X135304534Y-94268477D01*
X135499219Y-94205220D01*
X135681610Y-94112287D01*
X135774590Y-94044732D01*
X135847213Y-93991971D01*
X135847215Y-93991968D01*
X135847219Y-93991966D01*
X135991966Y-93847219D01*
X135991968Y-93847215D01*
X135991971Y-93847213D01*
X136049898Y-93767482D01*
X136112287Y-93681610D01*
X136139515Y-93628171D01*
X136187490Y-93577376D01*
X136255311Y-93560581D01*
X136321446Y-93583118D01*
X136360485Y-93628172D01*
X136387715Y-93681613D01*
X136508028Y-93847213D01*
X136652786Y-93991971D01*
X136753607Y-94065220D01*
X136818390Y-94112287D01*
X136934607Y-94171503D01*
X137000776Y-94205218D01*
X137000778Y-94205218D01*
X137000781Y-94205220D01*
X137105137Y-94239127D01*
X137195465Y-94268477D01*
X137296557Y-94284488D01*
X137397648Y-94300500D01*
X137397649Y-94300500D01*
X137602351Y-94300500D01*
X137602352Y-94300500D01*
X137804534Y-94268477D01*
X137999219Y-94205220D01*
X138181610Y-94112287D01*
X138274590Y-94044732D01*
X138347213Y-93991971D01*
X138347215Y-93991968D01*
X138347219Y-93991966D01*
X138491966Y-93847219D01*
X138491968Y-93847215D01*
X138491971Y-93847213D01*
X138549898Y-93767482D01*
X138612287Y-93681610D01*
X138639515Y-93628171D01*
X138687490Y-93577376D01*
X138755311Y-93560581D01*
X138821446Y-93583118D01*
X138860485Y-93628172D01*
X138887715Y-93681613D01*
X139008028Y-93847213D01*
X139152786Y-93991971D01*
X139253607Y-94065220D01*
X139318390Y-94112287D01*
X139434607Y-94171503D01*
X139500776Y-94205218D01*
X139500778Y-94205218D01*
X139500781Y-94205220D01*
X139605137Y-94239127D01*
X139695465Y-94268477D01*
X139796557Y-94284488D01*
X139897648Y-94300500D01*
X139897649Y-94300500D01*
X140102351Y-94300500D01*
X140102352Y-94300500D01*
X140304534Y-94268477D01*
X140499219Y-94205220D01*
X140681610Y-94112287D01*
X140774590Y-94044732D01*
X140847213Y-93991971D01*
X140847215Y-93991968D01*
X140847219Y-93991966D01*
X140991966Y-93847219D01*
X140991968Y-93847215D01*
X140991971Y-93847213D01*
X141049898Y-93767482D01*
X141112287Y-93681610D01*
X141139515Y-93628171D01*
X141143481Y-93623971D01*
X141145057Y-93618414D01*
X141167202Y-93598856D01*
X141187490Y-93577376D01*
X141193097Y-93575987D01*
X141197428Y-93572163D01*
X141226634Y-93567682D01*
X141255311Y-93560581D01*
X141260778Y-93562444D01*
X141266490Y-93561568D01*
X141293479Y-93573587D01*
X141321446Y-93583118D01*
X141326414Y-93588255D01*
X141330316Y-93589993D01*
X141340238Y-93602550D01*
X141353679Y-93616448D01*
X141357405Y-93622127D01*
X141387713Y-93681610D01*
X141477559Y-93805272D01*
X141479179Y-93807742D01*
X141488507Y-93838439D01*
X141499298Y-93868681D01*
X141499463Y-93874492D01*
X141499494Y-93874592D01*
X141499469Y-93874679D01*
X141499500Y-93875761D01*
X141499500Y-100875500D01*
X141479815Y-100942539D01*
X141427011Y-100988294D01*
X141375500Y-100999500D01*
X104965783Y-100999500D01*
X104898744Y-100979815D01*
X104878102Y-100963181D01*
X104036819Y-100121898D01*
X104003334Y-100060575D01*
X104000500Y-100034217D01*
X104000500Y-90901456D01*
X103962052Y-90708170D01*
X103962051Y-90708169D01*
X103962051Y-90708165D01*
X103927410Y-90624534D01*
X103886635Y-90526092D01*
X103886628Y-90526079D01*
X103777139Y-90362218D01*
X103777136Y-90362214D01*
X103634686Y-90219764D01*
X103634655Y-90219735D01*
X103101479Y-89686559D01*
X103101459Y-89686537D01*
X102957785Y-89542863D01*
X102957781Y-89542860D01*
X102793920Y-89433371D01*
X102793911Y-89433366D01*
X102721315Y-89403296D01*
X102665165Y-89380038D01*
X102611836Y-89357949D01*
X102611832Y-89357948D01*
X102611828Y-89357946D01*
X102515188Y-89338724D01*
X102418544Y-89319500D01*
X102418541Y-89319500D01*
X101875762Y-89319500D01*
X101808723Y-89299815D01*
X101802877Y-89295818D01*
X101681613Y-89207715D01*
X101681612Y-89207714D01*
X101681610Y-89207713D01*
X101588917Y-89160483D01*
X101538123Y-89112511D01*
X101521328Y-89044690D01*
X101543865Y-88978555D01*
X101588917Y-88939516D01*
X101681610Y-88892287D01*
X101702770Y-88876913D01*
X101847213Y-88771971D01*
X101847215Y-88771968D01*
X101847219Y-88771966D01*
X101991966Y-88627219D01*
X101991968Y-88627215D01*
X101991971Y-88627213D01*
X102044732Y-88554590D01*
X102112287Y-88461610D01*
X102205220Y-88279219D01*
X102268477Y-88084534D01*
X102300500Y-87882352D01*
X102300500Y-87677648D01*
X102268477Y-87475466D01*
X102205220Y-87280781D01*
X102205218Y-87280778D01*
X102205218Y-87280776D01*
X102171503Y-87214607D01*
X102112287Y-87098390D01*
X102104556Y-87087749D01*
X101991971Y-86932786D01*
X101847213Y-86788028D01*
X101681614Y-86667715D01*
X101675006Y-86664348D01*
X101588917Y-86620483D01*
X101538123Y-86572511D01*
X101521328Y-86504690D01*
X101543865Y-86438555D01*
X101588917Y-86399516D01*
X101681610Y-86352287D01*
X101702770Y-86336913D01*
X101847213Y-86231971D01*
X101847215Y-86231968D01*
X101847219Y-86231966D01*
X101991966Y-86087219D01*
X101991968Y-86087215D01*
X101991971Y-86087213D01*
X102044732Y-86014590D01*
X102112287Y-85921610D01*
X102205220Y-85739219D01*
X102268477Y-85544534D01*
X102300500Y-85342352D01*
X102300500Y-85137648D01*
X102268477Y-84935466D01*
X102205220Y-84740781D01*
X102205218Y-84740778D01*
X102205218Y-84740776D01*
X102171503Y-84674607D01*
X102112287Y-84558390D01*
X102104556Y-84547749D01*
X101991971Y-84392786D01*
X101847213Y-84248028D01*
X101681614Y-84127715D01*
X101675006Y-84124348D01*
X101588917Y-84080483D01*
X101538123Y-84032511D01*
X101521328Y-83964690D01*
X101543865Y-83898555D01*
X101588917Y-83859516D01*
X101681610Y-83812287D01*
X101702770Y-83796913D01*
X101847213Y-83691971D01*
X101847215Y-83691968D01*
X101847219Y-83691966D01*
X101991966Y-83547219D01*
X101991968Y-83547215D01*
X101991971Y-83547213D01*
X102044732Y-83474590D01*
X102112287Y-83381610D01*
X102205220Y-83199219D01*
X102268477Y-83004534D01*
X102300500Y-82802352D01*
X102300500Y-82597648D01*
X102268477Y-82395466D01*
X102205220Y-82200781D01*
X102205218Y-82200778D01*
X102205218Y-82200776D01*
X102171503Y-82134607D01*
X102112287Y-82018390D01*
X102104556Y-82007749D01*
X101991971Y-81852786D01*
X101847213Y-81708028D01*
X101681614Y-81587715D01*
X101675006Y-81584348D01*
X101588917Y-81540483D01*
X101538123Y-81492511D01*
X101521328Y-81424690D01*
X101543865Y-81358555D01*
X101588917Y-81319516D01*
X101681610Y-81272287D01*
X101702770Y-81256913D01*
X101847213Y-81151971D01*
X101847215Y-81151968D01*
X101847219Y-81151966D01*
X101991966Y-81007219D01*
X101991968Y-81007215D01*
X101991971Y-81007213D01*
X102044732Y-80934590D01*
X102112287Y-80841610D01*
X102205220Y-80659219D01*
X102268477Y-80464534D01*
X102300500Y-80262352D01*
X102300500Y-80057648D01*
X102268477Y-79855466D01*
X102205220Y-79660781D01*
X102205218Y-79660778D01*
X102205218Y-79660776D01*
X102171503Y-79594607D01*
X102112287Y-79478390D01*
X102104556Y-79467749D01*
X101991971Y-79312786D01*
X101847213Y-79168028D01*
X101681614Y-79047715D01*
X101675006Y-79044348D01*
X101588917Y-79000483D01*
X101538123Y-78952511D01*
X101521328Y-78884690D01*
X101543865Y-78818555D01*
X101588917Y-78779516D01*
X101681610Y-78732287D01*
X101702770Y-78716913D01*
X101847213Y-78611971D01*
X101847215Y-78611968D01*
X101847219Y-78611966D01*
X101991966Y-78467219D01*
X101991968Y-78467215D01*
X101991971Y-78467213D01*
X102044732Y-78394590D01*
X102112287Y-78301610D01*
X102205220Y-78119219D01*
X102268477Y-77924534D01*
X102300500Y-77722352D01*
X102300500Y-77517648D01*
X102268477Y-77315466D01*
X102205220Y-77120781D01*
X102205218Y-77120778D01*
X102205218Y-77120776D01*
X102171503Y-77054607D01*
X102112287Y-76938390D01*
X102104556Y-76927749D01*
X101991971Y-76772786D01*
X101847213Y-76628028D01*
X101681614Y-76507715D01*
X101675006Y-76504348D01*
X101588917Y-76460483D01*
X101538123Y-76412511D01*
X101521328Y-76344690D01*
X101543865Y-76278555D01*
X101588917Y-76239516D01*
X101681610Y-76192287D01*
X101702770Y-76176913D01*
X101847213Y-76071971D01*
X101847215Y-76071968D01*
X101847219Y-76071966D01*
X101991966Y-75927219D01*
X101991968Y-75927215D01*
X101991971Y-75927213D01*
X102044732Y-75854590D01*
X102112287Y-75761610D01*
X102205220Y-75579219D01*
X102268477Y-75384534D01*
X102300500Y-75182352D01*
X102300500Y-74977648D01*
X102268477Y-74775466D01*
X102205220Y-74580781D01*
X102205218Y-74580778D01*
X102205218Y-74580776D01*
X102171503Y-74514607D01*
X102112287Y-74398390D01*
X102104556Y-74387749D01*
X101991971Y-74232786D01*
X101847213Y-74088028D01*
X101681614Y-73967715D01*
X101675006Y-73964348D01*
X101588917Y-73920483D01*
X101538123Y-73872511D01*
X101521328Y-73804690D01*
X101543865Y-73738555D01*
X101588917Y-73699516D01*
X101681610Y-73652287D01*
X101702770Y-73636913D01*
X101847213Y-73531971D01*
X101847215Y-73531968D01*
X101847219Y-73531966D01*
X101991966Y-73387219D01*
X101991968Y-73387215D01*
X101991971Y-73387213D01*
X102044732Y-73314590D01*
X102112287Y-73221610D01*
X102205220Y-73039219D01*
X102268477Y-72844534D01*
X102300500Y-72642352D01*
X102300500Y-72437648D01*
X102268477Y-72235466D01*
X102205220Y-72040781D01*
X102205218Y-72040778D01*
X102205218Y-72040776D01*
X102171503Y-71974607D01*
X102112287Y-71858390D01*
X102104556Y-71847749D01*
X101991971Y-71692786D01*
X101847213Y-71548028D01*
X101681614Y-71427715D01*
X101675006Y-71424348D01*
X101588917Y-71380483D01*
X101538123Y-71332511D01*
X101521328Y-71264690D01*
X101543865Y-71198555D01*
X101588917Y-71159516D01*
X101681610Y-71112287D01*
X101702770Y-71096913D01*
X101847213Y-70991971D01*
X101847215Y-70991968D01*
X101847219Y-70991966D01*
X101991966Y-70847219D01*
X101991968Y-70847215D01*
X101991971Y-70847213D01*
X102044732Y-70774590D01*
X102112287Y-70681610D01*
X102205220Y-70499219D01*
X102268477Y-70304534D01*
X102300500Y-70102352D01*
X102300500Y-69897648D01*
X102268477Y-69695466D01*
X102205220Y-69500781D01*
X102205218Y-69500778D01*
X102205218Y-69500776D01*
X102171503Y-69434607D01*
X102112287Y-69318390D01*
X102104556Y-69307749D01*
X101991971Y-69152786D01*
X101847213Y-69008028D01*
X101681614Y-68887715D01*
X101675006Y-68884348D01*
X101588917Y-68840483D01*
X101538123Y-68792511D01*
X101521328Y-68724690D01*
X101543865Y-68658555D01*
X101588917Y-68619516D01*
X101681610Y-68572287D01*
X101702770Y-68556913D01*
X101847213Y-68451971D01*
X101847215Y-68451968D01*
X101847219Y-68451966D01*
X101991966Y-68307219D01*
X101991968Y-68307215D01*
X101991971Y-68307213D01*
X102044732Y-68234590D01*
X102112287Y-68141610D01*
X102205220Y-67959219D01*
X102268477Y-67764534D01*
X102300500Y-67562352D01*
X102300500Y-67357648D01*
X102268477Y-67155466D01*
X102205220Y-66960781D01*
X102205218Y-66960778D01*
X102205218Y-66960776D01*
X102171503Y-66894607D01*
X102112287Y-66778390D01*
X102104556Y-66767749D01*
X101991971Y-66612786D01*
X101847213Y-66468028D01*
X101681614Y-66347715D01*
X101675006Y-66344348D01*
X101588917Y-66300483D01*
X101538123Y-66252511D01*
X101521328Y-66184690D01*
X101543865Y-66118555D01*
X101588917Y-66079516D01*
X101681610Y-66032287D01*
X101702770Y-66016913D01*
X101847213Y-65911971D01*
X101847215Y-65911968D01*
X101847219Y-65911966D01*
X101991966Y-65767219D01*
X101991968Y-65767215D01*
X101991971Y-65767213D01*
X102044732Y-65694590D01*
X102112287Y-65601610D01*
X102205220Y-65419219D01*
X102268477Y-65224534D01*
X102300500Y-65022352D01*
X102300500Y-64817648D01*
X102268477Y-64615466D01*
X102205220Y-64420781D01*
X102205218Y-64420778D01*
X102205218Y-64420776D01*
X102171503Y-64354607D01*
X102112287Y-64238390D01*
X102104556Y-64227749D01*
X101991971Y-64072786D01*
X101847213Y-63928028D01*
X101681614Y-63807715D01*
X101675006Y-63804348D01*
X101588917Y-63760483D01*
X101538123Y-63712511D01*
X101521328Y-63644690D01*
X101543865Y-63578555D01*
X101588917Y-63539516D01*
X101681610Y-63492287D01*
X101702770Y-63476913D01*
X101847213Y-63371971D01*
X101847215Y-63371968D01*
X101847219Y-63371966D01*
X101991966Y-63227219D01*
X101991968Y-63227215D01*
X101991971Y-63227213D01*
X102044732Y-63154590D01*
X102112287Y-63061610D01*
X102205220Y-62879219D01*
X102268477Y-62684534D01*
X102300500Y-62482352D01*
X102300500Y-62277648D01*
X102268477Y-62075466D01*
X102205220Y-61880781D01*
X102205218Y-61880778D01*
X102205218Y-61880776D01*
X102171503Y-61814607D01*
X102112287Y-61698390D01*
X102104556Y-61687749D01*
X101991971Y-61532786D01*
X101847213Y-61388028D01*
X101681614Y-61267715D01*
X101675006Y-61264348D01*
X101588917Y-61220483D01*
X101538123Y-61172511D01*
X101521328Y-61104690D01*
X101543865Y-61038555D01*
X101588917Y-60999516D01*
X101681610Y-60952287D01*
X101733730Y-60914420D01*
X101847213Y-60831971D01*
X101847215Y-60831968D01*
X101847219Y-60831966D01*
X101991966Y-60687219D01*
X101991968Y-60687215D01*
X101991971Y-60687213D01*
X102044732Y-60614590D01*
X102112287Y-60521610D01*
X102205220Y-60339219D01*
X102268477Y-60144534D01*
X102300500Y-59942352D01*
X102300500Y-59737648D01*
X102268477Y-59535466D01*
X102205220Y-59340781D01*
X102205218Y-59340778D01*
X102205218Y-59340776D01*
X102136819Y-59206537D01*
X102112287Y-59158390D01*
X102104556Y-59147749D01*
X101991971Y-58992786D01*
X101847213Y-58848028D01*
X101681614Y-58727715D01*
X101643243Y-58708164D01*
X101588917Y-58680483D01*
X101538123Y-58632511D01*
X101521328Y-58564690D01*
X101543865Y-58498555D01*
X101588917Y-58459516D01*
X101681610Y-58412287D01*
X101802877Y-58324181D01*
X101868683Y-58300702D01*
X101875762Y-58300500D01*
X104834218Y-58300500D01*
X104901257Y-58320185D01*
G37*
%TD.AperFunction*%
%TA.AperFunction,NonConductor*%
G36*
X153942539Y-51020185D02*
G01*
X153988294Y-51072989D01*
X153999500Y-51124500D01*
X153999500Y-102875500D01*
X153979815Y-102942539D01*
X153927011Y-102988294D01*
X153875500Y-102999500D01*
X143213392Y-102999500D01*
X143146353Y-102979815D01*
X143100598Y-102927011D01*
X143090654Y-102857853D01*
X143119679Y-102794297D01*
X143134725Y-102779648D01*
X143137776Y-102777142D01*
X143137782Y-102777139D01*
X143277139Y-102637782D01*
X143386632Y-102473914D01*
X143462051Y-102291835D01*
X143500500Y-102098541D01*
X143500500Y-93875761D01*
X143505683Y-93858107D01*
X143505857Y-93839707D01*
X143518618Y-93814057D01*
X143520185Y-93808722D01*
X143520821Y-93807742D01*
X143522440Y-93805272D01*
X143612287Y-93681610D01*
X143642594Y-93622127D01*
X143646321Y-93616448D01*
X143667973Y-93598040D01*
X143687490Y-93577376D01*
X143694248Y-93575702D01*
X143699554Y-93571192D01*
X143727724Y-93567412D01*
X143755311Y-93560581D01*
X143761901Y-93562826D01*
X143768803Y-93561901D01*
X143794541Y-93573949D01*
X143821446Y-93583118D01*
X143826440Y-93588882D01*
X143832082Y-93591523D01*
X143840984Y-93605666D01*
X143860485Y-93628172D01*
X143887715Y-93681613D01*
X144008028Y-93847213D01*
X144152786Y-93991971D01*
X144253607Y-94065220D01*
X144318390Y-94112287D01*
X144434607Y-94171503D01*
X144500776Y-94205218D01*
X144500778Y-94205218D01*
X144500781Y-94205220D01*
X144605137Y-94239127D01*
X144695465Y-94268477D01*
X144796557Y-94284488D01*
X144897648Y-94300500D01*
X144897649Y-94300500D01*
X145102351Y-94300500D01*
X145102352Y-94300500D01*
X145304534Y-94268477D01*
X145499219Y-94205220D01*
X145681610Y-94112287D01*
X145774590Y-94044732D01*
X145847213Y-93991971D01*
X145847215Y-93991968D01*
X145847219Y-93991966D01*
X145991966Y-93847219D01*
X145991968Y-93847215D01*
X145991971Y-93847213D01*
X146049898Y-93767482D01*
X146112287Y-93681610D01*
X146205220Y-93499219D01*
X146268477Y-93304534D01*
X146300500Y-93102352D01*
X146300500Y-92897648D01*
X146268477Y-92695466D01*
X146205220Y-92500781D01*
X146205218Y-92500778D01*
X146205218Y-92500776D01*
X146168053Y-92427836D01*
X146112287Y-92318390D01*
X146104556Y-92307749D01*
X145991971Y-92152786D01*
X145847213Y-92008028D01*
X145681613Y-91887715D01*
X145681612Y-91887714D01*
X145681610Y-91887713D01*
X145579386Y-91835627D01*
X145499223Y-91794781D01*
X145304534Y-91731522D01*
X145121009Y-91702455D01*
X145102352Y-91699500D01*
X144897648Y-91699500D01*
X144878991Y-91702455D01*
X144695465Y-91731522D01*
X144500776Y-91794781D01*
X144318386Y-91887715D01*
X144152786Y-92008028D01*
X144008028Y-92152786D01*
X143887713Y-92318388D01*
X143860484Y-92371828D01*
X143812510Y-92422623D01*
X143744688Y-92439418D01*
X143678554Y-92416880D01*
X143639516Y-92371828D01*
X143612286Y-92318388D01*
X143491971Y-92152786D01*
X143347213Y-92008028D01*
X143181613Y-91887715D01*
X143181612Y-91887714D01*
X143181610Y-91887713D01*
X143079386Y-91835627D01*
X142999223Y-91794781D01*
X142804534Y-91731522D01*
X142621009Y-91702455D01*
X142602352Y-91699500D01*
X142397648Y-91699500D01*
X142378991Y-91702455D01*
X142195465Y-91731522D01*
X142000776Y-91794781D01*
X141818386Y-91887715D01*
X141652786Y-92008028D01*
X141508028Y-92152786D01*
X141387713Y-92318388D01*
X141360484Y-92371828D01*
X141312510Y-92422623D01*
X141244688Y-92439418D01*
X141178554Y-92416880D01*
X141139516Y-92371828D01*
X141112286Y-92318388D01*
X140991971Y-92152786D01*
X140847213Y-92008028D01*
X140681613Y-91887715D01*
X140681612Y-91887714D01*
X140681610Y-91887713D01*
X140579386Y-91835627D01*
X140499223Y-91794781D01*
X140304534Y-91731522D01*
X140121009Y-91702455D01*
X140102352Y-91699500D01*
X139897648Y-91699500D01*
X139878991Y-91702455D01*
X139695465Y-91731522D01*
X139500776Y-91794781D01*
X139318386Y-91887715D01*
X139152786Y-92008028D01*
X139008028Y-92152786D01*
X138887713Y-92318388D01*
X138860484Y-92371828D01*
X138856517Y-92376028D01*
X138854942Y-92381586D01*
X138832796Y-92401143D01*
X138812510Y-92422623D01*
X138806902Y-92424011D01*
X138802572Y-92427836D01*
X138773363Y-92432316D01*
X138744688Y-92439418D01*
X138739220Y-92437554D01*
X138733510Y-92438431D01*
X138706516Y-92426409D01*
X138678554Y-92416880D01*
X138673587Y-92411744D01*
X138669684Y-92410006D01*
X138659759Y-92397446D01*
X138646321Y-92383551D01*
X138642592Y-92377867D01*
X138612287Y-92318390D01*
X138522448Y-92194737D01*
X138520821Y-92192256D01*
X138511491Y-92161554D01*
X138500702Y-92131316D01*
X138500536Y-92125504D01*
X138500506Y-92125405D01*
X138500530Y-92125317D01*
X138500500Y-92124237D01*
X138500500Y-57901456D01*
X138481514Y-57806013D01*
X138480163Y-57799219D01*
X138462051Y-57708164D01*
X138413866Y-57591835D01*
X138403077Y-57565788D01*
X138386635Y-57526092D01*
X138386628Y-57526079D01*
X138277140Y-57362219D01*
X138277139Y-57362218D01*
X138137782Y-57222861D01*
X138137781Y-57222860D01*
X137584208Y-56669288D01*
X137584206Y-56669285D01*
X137584206Y-56669286D01*
X137577139Y-56662219D01*
X137577139Y-56662218D01*
X137437782Y-56522861D01*
X137437781Y-56522860D01*
X137437780Y-56522859D01*
X137273920Y-56413371D01*
X137273911Y-56413366D01*
X137201315Y-56383296D01*
X137145165Y-56360038D01*
X137091836Y-56337949D01*
X137091832Y-56337948D01*
X137091828Y-56337946D01*
X136995188Y-56318724D01*
X136898544Y-56299500D01*
X136898541Y-56299500D01*
X117115762Y-56299500D01*
X117048723Y-56279815D01*
X117042877Y-56275818D01*
X116921613Y-56187715D01*
X116921612Y-56187714D01*
X116921610Y-56187713D01*
X116864653Y-56158691D01*
X116739223Y-56094781D01*
X116544534Y-56031522D01*
X116369995Y-56003878D01*
X116342352Y-55999500D01*
X116137648Y-55999500D01*
X116113329Y-56003351D01*
X115935465Y-56031522D01*
X115740776Y-56094781D01*
X115558386Y-56187715D01*
X115392786Y-56308028D01*
X115248028Y-56452786D01*
X115127715Y-56618386D01*
X115034781Y-56800776D01*
X114971522Y-56995465D01*
X114939500Y-57197648D01*
X114939500Y-57402351D01*
X114971522Y-57604534D01*
X115034781Y-57799223D01*
X115127715Y-57981613D01*
X115248028Y-58147213D01*
X115392786Y-58291971D01*
X115547749Y-58404556D01*
X115558390Y-58412287D01*
X115649840Y-58458883D01*
X115651080Y-58459515D01*
X115701876Y-58507490D01*
X115718671Y-58575311D01*
X115696134Y-58641446D01*
X115651080Y-58680485D01*
X115558386Y-58727715D01*
X115392786Y-58848028D01*
X115248028Y-58992786D01*
X115127715Y-59158386D01*
X115034781Y-59340776D01*
X114971522Y-59535465D01*
X114939500Y-59737648D01*
X114939500Y-59942351D01*
X114971522Y-60144534D01*
X115034781Y-60339223D01*
X115127715Y-60521613D01*
X115248028Y-60687213D01*
X115392786Y-60831971D01*
X115506270Y-60914420D01*
X115558390Y-60952287D01*
X115649840Y-60998883D01*
X115651080Y-60999515D01*
X115701876Y-61047490D01*
X115718671Y-61115311D01*
X115696134Y-61181446D01*
X115651080Y-61220485D01*
X115558386Y-61267715D01*
X115392786Y-61388028D01*
X115248028Y-61532786D01*
X115127715Y-61698386D01*
X115034781Y-61880776D01*
X114971522Y-62075465D01*
X114939500Y-62277648D01*
X114939500Y-62482351D01*
X114971522Y-62684534D01*
X115034781Y-62879223D01*
X115127715Y-63061613D01*
X115248028Y-63227213D01*
X115392786Y-63371971D01*
X115547749Y-63484556D01*
X115558390Y-63492287D01*
X115649840Y-63538883D01*
X115651080Y-63539515D01*
X115701876Y-63587490D01*
X115718671Y-63655311D01*
X115696134Y-63721446D01*
X115651080Y-63760485D01*
X115558386Y-63807715D01*
X115392786Y-63928028D01*
X115248028Y-64072786D01*
X115127715Y-64238386D01*
X115034781Y-64420776D01*
X114971522Y-64615465D01*
X114939500Y-64817648D01*
X114939500Y-65022351D01*
X114971522Y-65224534D01*
X115034781Y-65419223D01*
X115127715Y-65601613D01*
X115248028Y-65767213D01*
X115392786Y-65911971D01*
X115547749Y-66024556D01*
X115558390Y-66032287D01*
X115649840Y-66078883D01*
X115651080Y-66079515D01*
X115701876Y-66127490D01*
X115718671Y-66195311D01*
X115696134Y-66261446D01*
X115651080Y-66300485D01*
X115558386Y-66347715D01*
X115392786Y-66468028D01*
X115248028Y-66612786D01*
X115127715Y-66778386D01*
X115034781Y-66960776D01*
X114971522Y-67155465D01*
X114939500Y-67357648D01*
X114939500Y-67562351D01*
X114971522Y-67764534D01*
X115034781Y-67959223D01*
X115127715Y-68141613D01*
X115248028Y-68307213D01*
X115392786Y-68451971D01*
X115547749Y-68564556D01*
X115558390Y-68572287D01*
X115649840Y-68618883D01*
X115651080Y-68619515D01*
X115701876Y-68667490D01*
X115718671Y-68735311D01*
X115696134Y-68801446D01*
X115651080Y-68840485D01*
X115558386Y-68887715D01*
X115392786Y-69008028D01*
X115248028Y-69152786D01*
X115127715Y-69318386D01*
X115034781Y-69500776D01*
X114971522Y-69695465D01*
X114939500Y-69897648D01*
X114939500Y-70102351D01*
X114971522Y-70304534D01*
X115034781Y-70499223D01*
X115127715Y-70681613D01*
X115248028Y-70847213D01*
X115392786Y-70991971D01*
X115547749Y-71104556D01*
X115558390Y-71112287D01*
X115649840Y-71158883D01*
X115651080Y-71159515D01*
X115701876Y-71207490D01*
X115718671Y-71275311D01*
X115696134Y-71341446D01*
X115651080Y-71380485D01*
X115558386Y-71427715D01*
X115392786Y-71548028D01*
X115248028Y-71692786D01*
X115127715Y-71858386D01*
X115034781Y-72040776D01*
X114971522Y-72235465D01*
X114939500Y-72437648D01*
X114939500Y-72642351D01*
X114971522Y-72844534D01*
X115034781Y-73039223D01*
X115127715Y-73221613D01*
X115248028Y-73387213D01*
X115392786Y-73531971D01*
X115547749Y-73644556D01*
X115558390Y-73652287D01*
X115649840Y-73698883D01*
X115651080Y-73699515D01*
X115701876Y-73747490D01*
X115718671Y-73815311D01*
X115696134Y-73881446D01*
X115651080Y-73920485D01*
X115558386Y-73967715D01*
X115392786Y-74088028D01*
X115248028Y-74232786D01*
X115127715Y-74398386D01*
X115034781Y-74580776D01*
X114971522Y-74775465D01*
X114939500Y-74977648D01*
X114939500Y-75182351D01*
X114971522Y-75384534D01*
X115034781Y-75579223D01*
X115127715Y-75761613D01*
X115248028Y-75927213D01*
X115392786Y-76071971D01*
X115547749Y-76184556D01*
X115558390Y-76192287D01*
X115649840Y-76238883D01*
X115651080Y-76239515D01*
X115701876Y-76287490D01*
X115718671Y-76355311D01*
X115696134Y-76421446D01*
X115651080Y-76460485D01*
X115558386Y-76507715D01*
X115392786Y-76628028D01*
X115248028Y-76772786D01*
X115127715Y-76938386D01*
X115034781Y-77120776D01*
X114971522Y-77315465D01*
X114939500Y-77517648D01*
X114939500Y-77722351D01*
X114971522Y-77924534D01*
X115034781Y-78119223D01*
X115127715Y-78301613D01*
X115248028Y-78467213D01*
X115392786Y-78611971D01*
X115547749Y-78724556D01*
X115558390Y-78732287D01*
X115649840Y-78778883D01*
X115651080Y-78779515D01*
X115701876Y-78827490D01*
X115718671Y-78895311D01*
X115696134Y-78961446D01*
X115651080Y-79000485D01*
X115558386Y-79047715D01*
X115392786Y-79168028D01*
X115248028Y-79312786D01*
X115127715Y-79478386D01*
X115034781Y-79660776D01*
X114971522Y-79855465D01*
X114939500Y-80057648D01*
X114939500Y-80262351D01*
X114971522Y-80464534D01*
X115034781Y-80659223D01*
X115127715Y-80841613D01*
X115248028Y-81007213D01*
X115392786Y-81151971D01*
X115547749Y-81264556D01*
X115558390Y-81272287D01*
X115649840Y-81318883D01*
X115651080Y-81319515D01*
X115701876Y-81367490D01*
X115718671Y-81435311D01*
X115696134Y-81501446D01*
X115651080Y-81540485D01*
X115558386Y-81587715D01*
X115392786Y-81708028D01*
X115248028Y-81852786D01*
X115127715Y-82018386D01*
X115034781Y-82200776D01*
X114971522Y-82395465D01*
X114939500Y-82597648D01*
X114939500Y-82802351D01*
X114971522Y-83004534D01*
X115034781Y-83199223D01*
X115127715Y-83381613D01*
X115248028Y-83547213D01*
X115392786Y-83691971D01*
X115547749Y-83804556D01*
X115558390Y-83812287D01*
X115649840Y-83858883D01*
X115651080Y-83859515D01*
X115701876Y-83907490D01*
X115718671Y-83975311D01*
X115696134Y-84041446D01*
X115651080Y-84080485D01*
X115558386Y-84127715D01*
X115392786Y-84248028D01*
X115248028Y-84392786D01*
X115127715Y-84558386D01*
X115034781Y-84740776D01*
X114971522Y-84935465D01*
X114939500Y-85137648D01*
X114939500Y-85342351D01*
X114971522Y-85544534D01*
X115034781Y-85739223D01*
X115127715Y-85921613D01*
X115248028Y-86087213D01*
X115392786Y-86231971D01*
X115547749Y-86344556D01*
X115558390Y-86352287D01*
X115649840Y-86398883D01*
X115651080Y-86399515D01*
X115701876Y-86447490D01*
X115718671Y-86515311D01*
X115696134Y-86581446D01*
X115651080Y-86620485D01*
X115558386Y-86667715D01*
X115392786Y-86788028D01*
X115248028Y-86932786D01*
X115127715Y-87098386D01*
X115034781Y-87280776D01*
X114971522Y-87475465D01*
X114939500Y-87677648D01*
X114939500Y-87882351D01*
X114971522Y-88084534D01*
X115034781Y-88279223D01*
X115127715Y-88461613D01*
X115248028Y-88627213D01*
X115392786Y-88771971D01*
X115547749Y-88884556D01*
X115558390Y-88892287D01*
X115649840Y-88938883D01*
X115651080Y-88939515D01*
X115701876Y-88987490D01*
X115718671Y-89055311D01*
X115696134Y-89121446D01*
X115651080Y-89160485D01*
X115558386Y-89207715D01*
X115392786Y-89328028D01*
X115248028Y-89472786D01*
X115127715Y-89638386D01*
X115034781Y-89820776D01*
X114971522Y-90015465D01*
X114939500Y-90217648D01*
X114939500Y-90422351D01*
X114971522Y-90624534D01*
X115034781Y-90819223D01*
X115127715Y-91001613D01*
X115248028Y-91167213D01*
X115392784Y-91311969D01*
X115429068Y-91338330D01*
X115471735Y-91393659D01*
X115477715Y-91463273D01*
X115445109Y-91525068D01*
X115384271Y-91559426D01*
X115369440Y-91561938D01*
X115332519Y-91565907D01*
X115197671Y-91616202D01*
X115197664Y-91616206D01*
X115082455Y-91702452D01*
X115082452Y-91702455D01*
X114996206Y-91817664D01*
X114996202Y-91817671D01*
X114945908Y-91952517D01*
X114939940Y-92008034D01*
X114939501Y-92012123D01*
X114939500Y-92012135D01*
X114939500Y-93707870D01*
X114939501Y-93707876D01*
X114945908Y-93767483D01*
X114996202Y-93902328D01*
X114996206Y-93902335D01*
X115082452Y-94017544D01*
X115082455Y-94017547D01*
X115197664Y-94103793D01*
X115197671Y-94103797D01*
X115332517Y-94154091D01*
X115332516Y-94154091D01*
X115339444Y-94154835D01*
X115392127Y-94160500D01*
X117087872Y-94160499D01*
X117147483Y-94154091D01*
X117282331Y-94103796D01*
X117397546Y-94017546D01*
X117483796Y-93902331D01*
X117534091Y-93767483D01*
X117540500Y-93707873D01*
X117540499Y-92012128D01*
X117534091Y-91952517D01*
X117509921Y-91887715D01*
X117483797Y-91817671D01*
X117483793Y-91817664D01*
X117397547Y-91702455D01*
X117397544Y-91702452D01*
X117282335Y-91616206D01*
X117282328Y-91616202D01*
X117147482Y-91565908D01*
X117147483Y-91565908D01*
X117110560Y-91561939D01*
X117046009Y-91535201D01*
X117006160Y-91477809D01*
X117003667Y-91407984D01*
X117039319Y-91347895D01*
X117050930Y-91338331D01*
X117087219Y-91311966D01*
X117231966Y-91167219D01*
X117231968Y-91167215D01*
X117231971Y-91167213D01*
X117284732Y-91094590D01*
X117352287Y-91001610D01*
X117445220Y-90819219D01*
X117508477Y-90624534D01*
X117540500Y-90422352D01*
X117540500Y-90217648D01*
X117508477Y-90015466D01*
X117445220Y-89820781D01*
X117445218Y-89820778D01*
X117445218Y-89820776D01*
X117376819Y-89686537D01*
X117352287Y-89638390D01*
X117344556Y-89627749D01*
X117231971Y-89472786D01*
X117087213Y-89328028D01*
X116921614Y-89207715D01*
X116915006Y-89204348D01*
X116828917Y-89160483D01*
X116778123Y-89112511D01*
X116761328Y-89044690D01*
X116783865Y-88978555D01*
X116828917Y-88939516D01*
X116921610Y-88892287D01*
X116942770Y-88876913D01*
X117087213Y-88771971D01*
X117087215Y-88771968D01*
X117087219Y-88771966D01*
X117231966Y-88627219D01*
X117231968Y-88627215D01*
X117231971Y-88627213D01*
X117284732Y-88554590D01*
X117352287Y-88461610D01*
X117445220Y-88279219D01*
X117508477Y-88084534D01*
X117540500Y-87882352D01*
X117540500Y-87677648D01*
X117508477Y-87475466D01*
X117445220Y-87280781D01*
X117445218Y-87280778D01*
X117445218Y-87280776D01*
X117411503Y-87214607D01*
X117352287Y-87098390D01*
X117344556Y-87087749D01*
X117231971Y-86932786D01*
X117087213Y-86788028D01*
X116921614Y-86667715D01*
X116915006Y-86664348D01*
X116828917Y-86620483D01*
X116778123Y-86572511D01*
X116761328Y-86504690D01*
X116783865Y-86438555D01*
X116828917Y-86399516D01*
X116921610Y-86352287D01*
X116942770Y-86336913D01*
X117087213Y-86231971D01*
X117087215Y-86231968D01*
X117087219Y-86231966D01*
X117231966Y-86087219D01*
X117231968Y-86087215D01*
X117231971Y-86087213D01*
X117284732Y-86014590D01*
X117352287Y-85921610D01*
X117445220Y-85739219D01*
X117508477Y-85544534D01*
X117540500Y-85342352D01*
X117540500Y-85137648D01*
X117508477Y-84935466D01*
X117445220Y-84740781D01*
X117445218Y-84740778D01*
X117445218Y-84740776D01*
X117411503Y-84674607D01*
X117352287Y-84558390D01*
X117344556Y-84547749D01*
X117231971Y-84392786D01*
X117087213Y-84248028D01*
X116921614Y-84127715D01*
X116915006Y-84124348D01*
X116828917Y-84080483D01*
X116778123Y-84032511D01*
X116761328Y-83964690D01*
X116783865Y-83898555D01*
X116828917Y-83859516D01*
X116921610Y-83812287D01*
X116942770Y-83796913D01*
X117087213Y-83691971D01*
X117087215Y-83691968D01*
X117087219Y-83691966D01*
X117231966Y-83547219D01*
X117231968Y-83547215D01*
X117231971Y-83547213D01*
X117284732Y-83474590D01*
X117352287Y-83381610D01*
X117445220Y-83199219D01*
X117508477Y-83004534D01*
X117540500Y-82802352D01*
X117540500Y-82597648D01*
X117508477Y-82395466D01*
X117445220Y-82200781D01*
X117445218Y-82200778D01*
X117445218Y-82200776D01*
X117411503Y-82134607D01*
X117352287Y-82018390D01*
X117344556Y-82007749D01*
X117231971Y-81852786D01*
X117087213Y-81708028D01*
X116921614Y-81587715D01*
X116915006Y-81584348D01*
X116828917Y-81540483D01*
X116778123Y-81492511D01*
X116761328Y-81424690D01*
X116783865Y-81358555D01*
X116828917Y-81319516D01*
X116921610Y-81272287D01*
X116942770Y-81256913D01*
X117087213Y-81151971D01*
X117087215Y-81151968D01*
X117087219Y-81151966D01*
X117231966Y-81007219D01*
X117231968Y-81007215D01*
X117231971Y-81007213D01*
X117284732Y-80934590D01*
X117352287Y-80841610D01*
X117445220Y-80659219D01*
X117508477Y-80464534D01*
X117540500Y-80262352D01*
X117540500Y-80057648D01*
X117508477Y-79855466D01*
X117445220Y-79660781D01*
X117445218Y-79660778D01*
X117445218Y-79660776D01*
X117411503Y-79594607D01*
X117352287Y-79478390D01*
X117344556Y-79467749D01*
X117231971Y-79312786D01*
X117087213Y-79168028D01*
X116921614Y-79047715D01*
X116915006Y-79044348D01*
X116828917Y-79000483D01*
X116778123Y-78952511D01*
X116761328Y-78884690D01*
X116783865Y-78818555D01*
X116828917Y-78779516D01*
X116921610Y-78732287D01*
X116942770Y-78716913D01*
X117087213Y-78611971D01*
X117087215Y-78611968D01*
X117087219Y-78611966D01*
X117231966Y-78467219D01*
X117231968Y-78467215D01*
X117231971Y-78467213D01*
X117284732Y-78394590D01*
X117352287Y-78301610D01*
X117445220Y-78119219D01*
X117508477Y-77924534D01*
X117540500Y-77722352D01*
X117540500Y-77517648D01*
X117508477Y-77315466D01*
X117445220Y-77120781D01*
X117445218Y-77120778D01*
X117445218Y-77120776D01*
X117411503Y-77054607D01*
X117352287Y-76938390D01*
X117344556Y-76927749D01*
X117231971Y-76772786D01*
X117087213Y-76628028D01*
X116921614Y-76507715D01*
X116915006Y-76504348D01*
X116828917Y-76460483D01*
X116778123Y-76412511D01*
X116761328Y-76344690D01*
X116783865Y-76278555D01*
X116828917Y-76239516D01*
X116921610Y-76192287D01*
X116942770Y-76176913D01*
X117087213Y-76071971D01*
X117087215Y-76071968D01*
X117087219Y-76071966D01*
X117231966Y-75927219D01*
X117231968Y-75927215D01*
X117231971Y-75927213D01*
X117284732Y-75854590D01*
X117352287Y-75761610D01*
X117445220Y-75579219D01*
X117508477Y-75384534D01*
X117540500Y-75182352D01*
X117540500Y-74977648D01*
X117508477Y-74775466D01*
X117445220Y-74580781D01*
X117445218Y-74580778D01*
X117445218Y-74580776D01*
X117411503Y-74514607D01*
X117352287Y-74398390D01*
X117344556Y-74387749D01*
X117231971Y-74232786D01*
X117087213Y-74088028D01*
X116921614Y-73967715D01*
X116915006Y-73964348D01*
X116828917Y-73920483D01*
X116778123Y-73872511D01*
X116761328Y-73804690D01*
X116783865Y-73738555D01*
X116828917Y-73699516D01*
X116921610Y-73652287D01*
X116942770Y-73636913D01*
X117087213Y-73531971D01*
X117087215Y-73531968D01*
X117087219Y-73531966D01*
X117231966Y-73387219D01*
X117231968Y-73387215D01*
X117231971Y-73387213D01*
X117284732Y-73314590D01*
X117352287Y-73221610D01*
X117445220Y-73039219D01*
X117508477Y-72844534D01*
X117540500Y-72642352D01*
X117540500Y-72437648D01*
X117508477Y-72235466D01*
X117445220Y-72040781D01*
X117445218Y-72040778D01*
X117445218Y-72040776D01*
X117411503Y-71974607D01*
X117352287Y-71858390D01*
X117344556Y-71847749D01*
X117231971Y-71692786D01*
X117087213Y-71548028D01*
X116921614Y-71427715D01*
X116915006Y-71424348D01*
X116828917Y-71380483D01*
X116778123Y-71332511D01*
X116761328Y-71264690D01*
X116783865Y-71198555D01*
X116828917Y-71159516D01*
X116921610Y-71112287D01*
X116942770Y-71096913D01*
X117087213Y-70991971D01*
X117087215Y-70991968D01*
X117087219Y-70991966D01*
X117231966Y-70847219D01*
X117231968Y-70847215D01*
X117231971Y-70847213D01*
X117284732Y-70774590D01*
X117352287Y-70681610D01*
X117445220Y-70499219D01*
X117508477Y-70304534D01*
X117540500Y-70102352D01*
X117540500Y-69897648D01*
X117508477Y-69695466D01*
X117445220Y-69500781D01*
X117445218Y-69500778D01*
X117445218Y-69500776D01*
X117411503Y-69434607D01*
X117352287Y-69318390D01*
X117344556Y-69307749D01*
X117231971Y-69152786D01*
X117087213Y-69008028D01*
X116921614Y-68887715D01*
X116915006Y-68884348D01*
X116828917Y-68840483D01*
X116778123Y-68792511D01*
X116761328Y-68724690D01*
X116783865Y-68658555D01*
X116828917Y-68619516D01*
X116921610Y-68572287D01*
X116942770Y-68556913D01*
X117087213Y-68451971D01*
X117087215Y-68451968D01*
X117087219Y-68451966D01*
X117231966Y-68307219D01*
X117231968Y-68307215D01*
X117231971Y-68307213D01*
X117284732Y-68234590D01*
X117352287Y-68141610D01*
X117445220Y-67959219D01*
X117508477Y-67764534D01*
X117540500Y-67562352D01*
X117540500Y-67357648D01*
X117508477Y-67155466D01*
X117445220Y-66960781D01*
X117445218Y-66960778D01*
X117445218Y-66960776D01*
X117411503Y-66894607D01*
X117352287Y-66778390D01*
X117344556Y-66767749D01*
X117231971Y-66612786D01*
X117087213Y-66468028D01*
X116921614Y-66347715D01*
X116915006Y-66344348D01*
X116828917Y-66300483D01*
X116778123Y-66252511D01*
X116761328Y-66184690D01*
X116783865Y-66118555D01*
X116828917Y-66079516D01*
X116921610Y-66032287D01*
X116942770Y-66016913D01*
X117087213Y-65911971D01*
X117087215Y-65911968D01*
X117087219Y-65911966D01*
X117231966Y-65767219D01*
X117231968Y-65767215D01*
X117231971Y-65767213D01*
X117284732Y-65694590D01*
X117352287Y-65601610D01*
X117445220Y-65419219D01*
X117508477Y-65224534D01*
X117540500Y-65022352D01*
X117540500Y-64817648D01*
X117508477Y-64615466D01*
X117445220Y-64420781D01*
X117445218Y-64420778D01*
X117445218Y-64420776D01*
X117411503Y-64354607D01*
X117352287Y-64238390D01*
X117344556Y-64227749D01*
X117231971Y-64072786D01*
X117087213Y-63928028D01*
X116921614Y-63807715D01*
X116915006Y-63804348D01*
X116828917Y-63760483D01*
X116778123Y-63712511D01*
X116761328Y-63644690D01*
X116783865Y-63578555D01*
X116828917Y-63539516D01*
X116921610Y-63492287D01*
X116942770Y-63476913D01*
X117087213Y-63371971D01*
X117087215Y-63371968D01*
X117087219Y-63371966D01*
X117231966Y-63227219D01*
X117231968Y-63227215D01*
X117231971Y-63227213D01*
X117284732Y-63154590D01*
X117352287Y-63061610D01*
X117445220Y-62879219D01*
X117508477Y-62684534D01*
X117540500Y-62482352D01*
X117540500Y-62277648D01*
X117508477Y-62075466D01*
X117445220Y-61880781D01*
X117445218Y-61880778D01*
X117445218Y-61880776D01*
X117411503Y-61814607D01*
X117352287Y-61698390D01*
X117344556Y-61687749D01*
X117231971Y-61532786D01*
X117087213Y-61388028D01*
X116921614Y-61267715D01*
X116915006Y-61264348D01*
X116828917Y-61220483D01*
X116778123Y-61172511D01*
X116761328Y-61104690D01*
X116783865Y-61038555D01*
X116828917Y-60999516D01*
X116921610Y-60952287D01*
X117042877Y-60864181D01*
X117108683Y-60840702D01*
X117115762Y-60840500D01*
X133874218Y-60840500D01*
X133903658Y-60849144D01*
X133933645Y-60855668D01*
X133938660Y-60859422D01*
X133941257Y-60860185D01*
X133961899Y-60876819D01*
X133963181Y-60878101D01*
X133996666Y-60939424D01*
X133999500Y-60965782D01*
X133999500Y-92124237D01*
X133979815Y-92191276D01*
X133975818Y-92197122D01*
X133887713Y-92318388D01*
X133860484Y-92371828D01*
X133812510Y-92422623D01*
X133744688Y-92439418D01*
X133678554Y-92416880D01*
X133639516Y-92371828D01*
X133612286Y-92318388D01*
X133491971Y-92152786D01*
X133347213Y-92008028D01*
X133181613Y-91887715D01*
X133181612Y-91887714D01*
X133181610Y-91887713D01*
X133079386Y-91835627D01*
X132999223Y-91794781D01*
X132804534Y-91731522D01*
X132621009Y-91702455D01*
X132602352Y-91699500D01*
X132397648Y-91699500D01*
X132378991Y-91702455D01*
X132195465Y-91731522D01*
X132000776Y-91794781D01*
X131818386Y-91887715D01*
X131652786Y-92008028D01*
X131508028Y-92152786D01*
X131387713Y-92318388D01*
X131360484Y-92371828D01*
X131312510Y-92422623D01*
X131244688Y-92439418D01*
X131178554Y-92416880D01*
X131139516Y-92371828D01*
X131112286Y-92318388D01*
X130991971Y-92152786D01*
X130847213Y-92008028D01*
X130681613Y-91887715D01*
X130681612Y-91887714D01*
X130681610Y-91887713D01*
X130579386Y-91835627D01*
X130499223Y-91794781D01*
X130304534Y-91731522D01*
X130121009Y-91702455D01*
X130102352Y-91699500D01*
X129897648Y-91699500D01*
X129878991Y-91702455D01*
X129695465Y-91731522D01*
X129500776Y-91794781D01*
X129318386Y-91887715D01*
X129152786Y-92008028D01*
X129008028Y-92152786D01*
X128887715Y-92318386D01*
X128794781Y-92500776D01*
X128731522Y-92695465D01*
X128699500Y-92897648D01*
X128699500Y-93102351D01*
X128731522Y-93304534D01*
X128794781Y-93499223D01*
X128887715Y-93681613D01*
X129008028Y-93847213D01*
X129152786Y-93991971D01*
X129253607Y-94065220D01*
X129318390Y-94112287D01*
X129434607Y-94171503D01*
X129500776Y-94205218D01*
X129500778Y-94205218D01*
X129500781Y-94205220D01*
X129605137Y-94239127D01*
X129695465Y-94268477D01*
X129796557Y-94284488D01*
X129897648Y-94300500D01*
X129897649Y-94300500D01*
X130102351Y-94300500D01*
X130102352Y-94300500D01*
X130304534Y-94268477D01*
X130499219Y-94205220D01*
X130681610Y-94112287D01*
X130774590Y-94044732D01*
X130847213Y-93991971D01*
X130847215Y-93991968D01*
X130847219Y-93991966D01*
X130991966Y-93847219D01*
X130991968Y-93847215D01*
X130991971Y-93847213D01*
X131049898Y-93767482D01*
X131112287Y-93681610D01*
X131139515Y-93628171D01*
X131143481Y-93623971D01*
X131145057Y-93618414D01*
X131167202Y-93598856D01*
X131187490Y-93577376D01*
X131193097Y-93575987D01*
X131197428Y-93572163D01*
X131226634Y-93567682D01*
X131255311Y-93560581D01*
X131260778Y-93562444D01*
X131266490Y-93561568D01*
X131293479Y-93573587D01*
X131321446Y-93583118D01*
X131326414Y-93588255D01*
X131330316Y-93589993D01*
X131340238Y-93602550D01*
X131353679Y-93616448D01*
X131357405Y-93622127D01*
X131387713Y-93681610D01*
X131477559Y-93805272D01*
X131479179Y-93807742D01*
X131488507Y-93838439D01*
X131499298Y-93868681D01*
X131499463Y-93874492D01*
X131499494Y-93874592D01*
X131499469Y-93874679D01*
X131499500Y-93875761D01*
X131499500Y-96375500D01*
X131479815Y-96442539D01*
X131427011Y-96488294D01*
X131375500Y-96499500D01*
X108465783Y-96499500D01*
X108398744Y-96479815D01*
X108378102Y-96463181D01*
X108036819Y-96121898D01*
X108003334Y-96060575D01*
X108000500Y-96034217D01*
X108000500Y-58901456D01*
X107988175Y-58839500D01*
X107975771Y-58777139D01*
X107962051Y-58708164D01*
X107905452Y-58571523D01*
X107886632Y-58526086D01*
X107872690Y-58505220D01*
X107777139Y-58362217D01*
X107634686Y-58219764D01*
X107634655Y-58219735D01*
X106081479Y-56666559D01*
X106081459Y-56666537D01*
X105937785Y-56522863D01*
X105937781Y-56522860D01*
X105773920Y-56413371D01*
X105773911Y-56413366D01*
X105701315Y-56383296D01*
X105645165Y-56360038D01*
X105591836Y-56337949D01*
X105591832Y-56337948D01*
X105591828Y-56337946D01*
X105495188Y-56318724D01*
X105398544Y-56299500D01*
X105398541Y-56299500D01*
X101875762Y-56299500D01*
X101808723Y-56279815D01*
X101802877Y-56275818D01*
X101681613Y-56187715D01*
X101681612Y-56187714D01*
X101681610Y-56187713D01*
X101624653Y-56158691D01*
X101499223Y-56094781D01*
X101304534Y-56031522D01*
X101129995Y-56003878D01*
X101102352Y-55999500D01*
X100897648Y-55999500D01*
X100873329Y-56003351D01*
X100695465Y-56031522D01*
X100500776Y-56094781D01*
X100318386Y-56187715D01*
X100152786Y-56308028D01*
X100008028Y-56452786D01*
X99887715Y-56618386D01*
X99794781Y-56800776D01*
X99731522Y-56995465D01*
X99699500Y-57197648D01*
X99699500Y-57402351D01*
X99731522Y-57604534D01*
X99794781Y-57799223D01*
X99887715Y-57981613D01*
X100008028Y-58147213D01*
X100152786Y-58291971D01*
X100307749Y-58404556D01*
X100318390Y-58412287D01*
X100409840Y-58458883D01*
X100411080Y-58459515D01*
X100461876Y-58507490D01*
X100478671Y-58575311D01*
X100456134Y-58641446D01*
X100411080Y-58680485D01*
X100318386Y-58727715D01*
X100152786Y-58848028D01*
X100008028Y-58992786D01*
X99887715Y-59158386D01*
X99794781Y-59340776D01*
X99731522Y-59535465D01*
X99699500Y-59737648D01*
X99699500Y-59942351D01*
X99731522Y-60144534D01*
X99794781Y-60339223D01*
X99887715Y-60521613D01*
X100008028Y-60687213D01*
X100152786Y-60831971D01*
X100266270Y-60914420D01*
X100318390Y-60952287D01*
X100409840Y-60998883D01*
X100411080Y-60999515D01*
X100461876Y-61047490D01*
X100478671Y-61115311D01*
X100456134Y-61181446D01*
X100411080Y-61220485D01*
X100318386Y-61267715D01*
X100152786Y-61388028D01*
X100008028Y-61532786D01*
X99887715Y-61698386D01*
X99794781Y-61880776D01*
X99731522Y-62075465D01*
X99699500Y-62277648D01*
X99699500Y-62482351D01*
X99731522Y-62684534D01*
X99794781Y-62879223D01*
X99887715Y-63061613D01*
X100008028Y-63227213D01*
X100152786Y-63371971D01*
X100307749Y-63484556D01*
X100318390Y-63492287D01*
X100409840Y-63538883D01*
X100411080Y-63539515D01*
X100461876Y-63587490D01*
X100478671Y-63655311D01*
X100456134Y-63721446D01*
X100411080Y-63760485D01*
X100318386Y-63807715D01*
X100152786Y-63928028D01*
X100008028Y-64072786D01*
X99887715Y-64238386D01*
X99794781Y-64420776D01*
X99731522Y-64615465D01*
X99699500Y-64817648D01*
X99699500Y-65022351D01*
X99731522Y-65224534D01*
X99794781Y-65419223D01*
X99887715Y-65601613D01*
X100008028Y-65767213D01*
X100152786Y-65911971D01*
X100307749Y-66024556D01*
X100318390Y-66032287D01*
X100409840Y-66078883D01*
X100411080Y-66079515D01*
X100461876Y-66127490D01*
X100478671Y-66195311D01*
X100456134Y-66261446D01*
X100411080Y-66300485D01*
X100318386Y-66347715D01*
X100152786Y-66468028D01*
X100008028Y-66612786D01*
X99887715Y-66778386D01*
X99794781Y-66960776D01*
X99731522Y-67155465D01*
X99699500Y-67357648D01*
X99699500Y-67562351D01*
X99731522Y-67764534D01*
X99794781Y-67959223D01*
X99887715Y-68141613D01*
X100008028Y-68307213D01*
X100152786Y-68451971D01*
X100307749Y-68564556D01*
X100318390Y-68572287D01*
X100409840Y-68618883D01*
X100411080Y-68619515D01*
X100461876Y-68667490D01*
X100478671Y-68735311D01*
X100456134Y-68801446D01*
X100411080Y-68840485D01*
X100318386Y-68887715D01*
X100152786Y-69008028D01*
X100008028Y-69152786D01*
X99887715Y-69318386D01*
X99794781Y-69500776D01*
X99731522Y-69695465D01*
X99699500Y-69897648D01*
X99699500Y-70102351D01*
X99731522Y-70304534D01*
X99794781Y-70499223D01*
X99887715Y-70681613D01*
X100008028Y-70847213D01*
X100152786Y-70991971D01*
X100307749Y-71104556D01*
X100318390Y-71112287D01*
X100409840Y-71158883D01*
X100411080Y-71159515D01*
X100461876Y-71207490D01*
X100478671Y-71275311D01*
X100456134Y-71341446D01*
X100411080Y-71380485D01*
X100318386Y-71427715D01*
X100152786Y-71548028D01*
X100008028Y-71692786D01*
X99887715Y-71858386D01*
X99794781Y-72040776D01*
X99731522Y-72235465D01*
X99699500Y-72437648D01*
X99699500Y-72642351D01*
X99731522Y-72844534D01*
X99794781Y-73039223D01*
X99887715Y-73221613D01*
X100008028Y-73387213D01*
X100152786Y-73531971D01*
X100307749Y-73644556D01*
X100318390Y-73652287D01*
X100409840Y-73698883D01*
X100411080Y-73699515D01*
X100461876Y-73747490D01*
X100478671Y-73815311D01*
X100456134Y-73881446D01*
X100411080Y-73920485D01*
X100318386Y-73967715D01*
X100152786Y-74088028D01*
X100008028Y-74232786D01*
X99887715Y-74398386D01*
X99794781Y-74580776D01*
X99731522Y-74775465D01*
X99699500Y-74977648D01*
X99699500Y-75182351D01*
X99731522Y-75384534D01*
X99794781Y-75579223D01*
X99887715Y-75761613D01*
X100008028Y-75927213D01*
X100152786Y-76071971D01*
X100307749Y-76184556D01*
X100318390Y-76192287D01*
X100409840Y-76238883D01*
X100411080Y-76239515D01*
X100461876Y-76287490D01*
X100478671Y-76355311D01*
X100456134Y-76421446D01*
X100411080Y-76460485D01*
X100318386Y-76507715D01*
X100152786Y-76628028D01*
X100008028Y-76772786D01*
X99887715Y-76938386D01*
X99794781Y-77120776D01*
X99731522Y-77315465D01*
X99699500Y-77517648D01*
X99699500Y-77722351D01*
X99731522Y-77924534D01*
X99794781Y-78119223D01*
X99887715Y-78301613D01*
X100008028Y-78467213D01*
X100152786Y-78611971D01*
X100307749Y-78724556D01*
X100318390Y-78732287D01*
X100409840Y-78778883D01*
X100411080Y-78779515D01*
X100461876Y-78827490D01*
X100478671Y-78895311D01*
X100456134Y-78961446D01*
X100411080Y-79000485D01*
X100318386Y-79047715D01*
X100152786Y-79168028D01*
X100008028Y-79312786D01*
X99887715Y-79478386D01*
X99794781Y-79660776D01*
X99731522Y-79855465D01*
X99699500Y-80057648D01*
X99699500Y-80262351D01*
X99731522Y-80464534D01*
X99794781Y-80659223D01*
X99887715Y-80841613D01*
X100008028Y-81007213D01*
X100152786Y-81151971D01*
X100307749Y-81264556D01*
X100318390Y-81272287D01*
X100409840Y-81318883D01*
X100411080Y-81319515D01*
X100461876Y-81367490D01*
X100478671Y-81435311D01*
X100456134Y-81501446D01*
X100411080Y-81540485D01*
X100318386Y-81587715D01*
X100152786Y-81708028D01*
X100008028Y-81852786D01*
X99887715Y-82018386D01*
X99794781Y-82200776D01*
X99731522Y-82395465D01*
X99699500Y-82597648D01*
X99699500Y-82802351D01*
X99731522Y-83004534D01*
X99794781Y-83199223D01*
X99887715Y-83381613D01*
X100008028Y-83547213D01*
X100152786Y-83691971D01*
X100307749Y-83804556D01*
X100318390Y-83812287D01*
X100409840Y-83858883D01*
X100411080Y-83859515D01*
X100461876Y-83907490D01*
X100478671Y-83975311D01*
X100456134Y-84041446D01*
X100411080Y-84080485D01*
X100318386Y-84127715D01*
X100152786Y-84248028D01*
X100008028Y-84392786D01*
X99887715Y-84558386D01*
X99794781Y-84740776D01*
X99731522Y-84935465D01*
X99699500Y-85137648D01*
X99699500Y-85342351D01*
X99731522Y-85544534D01*
X99794781Y-85739223D01*
X99887715Y-85921613D01*
X100008028Y-86087213D01*
X100152786Y-86231971D01*
X100307749Y-86344556D01*
X100318390Y-86352287D01*
X100409840Y-86398883D01*
X100411080Y-86399515D01*
X100461876Y-86447490D01*
X100478671Y-86515311D01*
X100456134Y-86581446D01*
X100411080Y-86620485D01*
X100318386Y-86667715D01*
X100152786Y-86788028D01*
X100008028Y-86932786D01*
X99887715Y-87098386D01*
X99794781Y-87280776D01*
X99731522Y-87475465D01*
X99699500Y-87677648D01*
X99699500Y-87882351D01*
X99731522Y-88084534D01*
X99794781Y-88279223D01*
X99887715Y-88461613D01*
X100008028Y-88627213D01*
X100152786Y-88771971D01*
X100307749Y-88884556D01*
X100318390Y-88892287D01*
X100409840Y-88938883D01*
X100411080Y-88939515D01*
X100461876Y-88987490D01*
X100478671Y-89055311D01*
X100456134Y-89121446D01*
X100411080Y-89160485D01*
X100318386Y-89207715D01*
X100152786Y-89328028D01*
X100008028Y-89472786D01*
X99887715Y-89638386D01*
X99794781Y-89820776D01*
X99731522Y-90015465D01*
X99699500Y-90217648D01*
X99699500Y-90422351D01*
X99731522Y-90624534D01*
X99794781Y-90819223D01*
X99887715Y-91001613D01*
X100008028Y-91167213D01*
X100152786Y-91311971D01*
X100293798Y-91414420D01*
X100318390Y-91432287D01*
X100384128Y-91465782D01*
X100411080Y-91479515D01*
X100461876Y-91527490D01*
X100478671Y-91595311D01*
X100456134Y-91661446D01*
X100411080Y-91700485D01*
X100318386Y-91747715D01*
X100152786Y-91868028D01*
X100008028Y-92012786D01*
X99887715Y-92178386D01*
X99794781Y-92360776D01*
X99731522Y-92555465D01*
X99699500Y-92757648D01*
X99699500Y-92962351D01*
X99731522Y-93164534D01*
X99794781Y-93359223D01*
X99887715Y-93541613D01*
X100008028Y-93707213D01*
X100152786Y-93851971D01*
X100255816Y-93926825D01*
X100318390Y-93972287D01*
X100407212Y-94017544D01*
X100500776Y-94065218D01*
X100500778Y-94065218D01*
X100500781Y-94065220D01*
X100605137Y-94099127D01*
X100695465Y-94128477D01*
X100796557Y-94144488D01*
X100897648Y-94160500D01*
X100897649Y-94160500D01*
X101102351Y-94160500D01*
X101102352Y-94160500D01*
X101304534Y-94128477D01*
X101499219Y-94065220D01*
X101681610Y-93972287D01*
X101753451Y-93920091D01*
X101802615Y-93884373D01*
X101868421Y-93860893D01*
X101936475Y-93876719D01*
X101985170Y-93926825D01*
X101999500Y-93984691D01*
X101999500Y-100598541D01*
X101999500Y-100598543D01*
X101999499Y-100598543D01*
X102037947Y-100791829D01*
X102037950Y-100791839D01*
X102113364Y-100973907D01*
X102113371Y-100973920D01*
X102222859Y-101137780D01*
X102222860Y-101137781D01*
X102222861Y-101137782D01*
X102362218Y-101277139D01*
X102362219Y-101277139D01*
X102369286Y-101284206D01*
X102369285Y-101284206D01*
X102369288Y-101284208D01*
X103722860Y-102637781D01*
X103722861Y-102637782D01*
X103862218Y-102777139D01*
X103866194Y-102779795D01*
X103873884Y-102787415D01*
X103888076Y-102813123D01*
X103904608Y-102837395D01*
X103904767Y-102843359D01*
X103907651Y-102848583D01*
X103905691Y-102877880D01*
X103906477Y-102907239D01*
X103903386Y-102912343D01*
X103902988Y-102918297D01*
X103885499Y-102941885D01*
X103870289Y-102967007D01*
X103864929Y-102969630D01*
X103861376Y-102974423D01*
X103833908Y-102984812D01*
X103807532Y-102997722D01*
X103797532Y-102998571D01*
X103796025Y-102999142D01*
X103794539Y-102998826D01*
X103786608Y-102999500D01*
X99124500Y-102999500D01*
X99057461Y-102979815D01*
X99011706Y-102927011D01*
X99000500Y-102875500D01*
X99000500Y-51124500D01*
X99020185Y-51057461D01*
X99072989Y-51011706D01*
X99124500Y-51000500D01*
X153875500Y-51000500D01*
X153942539Y-51020185D01*
G37*
%TD.AperFunction*%
M02*
